<?xml version="1.0" encoding="UTF-8" standalone="no"?>
<!DOCTYPE svg PUBLIC "-//W3C//DTD SVG 1.1//EN"
 "http://www.w3.org/Graphics/SVG/1.1/DTD/svg11.dtd">
<!-- Generated by graphviz version 15.1.1 (20260805.0921)
 -->
<!-- Title: stdui::component_context::state Pages: 1 -->
<svg width="424pt" height="39pt"
 viewBox="0.00 0.00 424.00 39.00" xmlns="http://www.w3.org/2000/svg" xmlns:xlink="http://www.w3.org/1999/xlink">
<g id="graph0" class="graph" transform="scale(1 1) rotate(0) translate(4 34.5)">
<title>stdui::component_context::state</title>
<!-- Node1 -->
<g id="Node000001" class="node">
<title>Node1</title>
<g id="a_Node000001"><a xlink:title="Obtains or reuses a named component&#45;local state object.">
<polygon fill="#999999" stroke="#666666" points="128.5,-30.5 0,-30.5 0,0 128.5,0 128.5,-30.5"/>
<text xml:space="preserve" text-anchor="start" x="8" y="-17" font-family="Helvetica,sans-Serif" font-size="10.00">stdui::component_context</text>
<text xml:space="preserve" text-anchor="middle" x="64.25" y="-5.75" font-family="Helvetica,sans-Serif" font-size="10.00">::state</text>
</a>
</g>
</g>
<!-- Node2 -->
<g id="Node000002" class="node">
<title>Node2</title>
<g id="a_Node000002"><a xlink:href="classstdui_1_1runtime.html#a7e3abaeb7abf1bf2fc6bb9ef10a12cc0" target="_top" xlink:title=" ">
<polygon fill="white" stroke="#666666" points="281,-24.88 164.5,-24.88 164.5,-5.63 281,-5.63 281,-24.88"/>
<text xml:space="preserve" text-anchor="middle" x="222.75" y="-11.38" font-family="Helvetica,sans-Serif" font-size="10.00">stdui::runtime::state_at</text>
</a>
</g>
</g>
<!-- Node1&#45;&gt;Node2 -->
<g id="edge1_Node000001_Node000002" class="edge">
<title>Node1&#45;&gt;Node2</title>
<g id="a_edge1_Node000001_Node000002"><a xlink:title=" ">
<path fill="none" stroke="#63b8ff" d="M128.9,-15.25C136.75,-15.25 144.8,-15.25 152.72,-15.25"/>
<polygon fill="#63b8ff" stroke="#63b8ff" points="152.68,-18.75 162.68,-15.25 152.68,-11.75 152.68,-18.75"/>
</a>
</g>
</g>
<!-- Node3 -->
<g id="Node000003" class="node">
<title>Node3</title>
<g id="a_Node000003"><a xlink:href="classstdui_1_1state__handle.html#a3cb160f70b9afbd1511646ab72e6ed55" target="_top" xlink:title=" ">
<polygon fill="white" stroke="#666666" points="415.5,-30.5 317,-30.5 317,0 415.5,0 415.5,-30.5"/>
<text xml:space="preserve" text-anchor="start" x="325" y="-17" font-family="Helvetica,sans-Serif" font-size="10.00">stdui::state_handle</text>
<text xml:space="preserve" text-anchor="middle" x="366.25" y="-5.75" font-family="Helvetica,sans-Serif" font-size="10.00">::state_handle</text>
</a>
</g>
</g>
<!-- Node2&#45;&gt;Node3 -->
<g id="edge2_Node000002_Node000003" class="edge">
<title>Node2&#45;&gt;Node3</title>
<g id="a_edge2_Node000002_Node000003"><a xlink:title=" ">
<path fill="none" stroke="#63b8ff" d="M281.3,-15.25C289.22,-15.25 297.37,-15.25 305.32,-15.25"/>
<polygon fill="#63b8ff" stroke="#63b8ff" points="305.29,-18.75 315.29,-15.25 305.29,-11.75 305.29,-18.75"/>
</a>
</g>
</g>
</g>
</svg>
