<?xml version="1.0" encoding="UTF-8" standalone="no"?>
<!DOCTYPE svg PUBLIC "-//W3C//DTD SVG 1.1//EN"
 "http://www.w3.org/Graphics/SVG/1.1/DTD/svg11.dtd">
<!-- Generated by graphviz version 2.43.0 (0)
 -->
<!-- Title: stdui::null_platform::create_window Pages: 1 -->
<svg width="287pt" height="86pt"
 viewBox="0.00 0.00 287.00 86.00" xmlns="http://www.w3.org/2000/svg" xmlns:xlink="http://www.w3.org/1999/xlink">
<g id="graph0" class="graph" transform="scale(1 1) rotate(0) translate(4 82)">
<title>stdui::null_platform::create_window</title>
<!-- Node1 -->
<g id="Node000001" class="node">
<title>Node1</title>
<g id="a_Node000001"><a xlink:title="Creates a new window with the specified size and title.">
<polygon fill="#999999" stroke="#666666" points="112,-54 0,-54 0,-24 112,-24 112,-54"/>
<text text-anchor="start" x="8" y="-42" font-family="Helvetica,sans-Serif" font-size="10.00">stdui::null_platform</text>
<text text-anchor="middle" x="56" y="-31" font-family="Helvetica,sans-Serif" font-size="10.00">::create_window</text>
</a>
</g>
</g>
<!-- Node2 -->
<g id="Node000002" class="node">
<title>Node2</title>
<g id="a_Node000002"><a xlink:href="classstdui_1_1text__measurer__factory.html#a6ffd626bb6060b89af7167d8d175a7a2" target="_top" xlink:title="Creates a text measurer for the current platform.">
<polygon fill="white" stroke="#666666" points="272.5,-78 154.5,-78 154.5,-48 272.5,-48 272.5,-78"/>
<text text-anchor="start" x="162.5" y="-66" font-family="Helvetica,sans-Serif" font-size="10.00">stdui::text_measurer</text>
<text text-anchor="middle" x="213.5" y="-55" font-family="Helvetica,sans-Serif" font-size="10.00">_factory::create</text>
</a>
</g>
</g>
<!-- Node1&#45;&gt;Node2 -->
<g id="edge1_Node000001_Node000002" class="edge">
<title>Node1&#45;&gt;Node2</title>
<g id="a_edge1_Node000001_Node000002"><a xlink:title=" ">
<path fill="none" stroke="#63b8ff" d="M112.26,-47.53C122.58,-49.12 133.48,-50.8 144.14,-52.45"/>
<polygon fill="#63b8ff" stroke="#63b8ff" points="143.84,-55.94 154.26,-54.01 144.91,-49.03 143.84,-55.94"/>
</a>
</g>
</g>
<!-- Node3 -->
<g id="Node000003" class="node">
<title>Node3</title>
<g id="a_Node000003"><a xlink:href="classstdui_1_1platform__window.html#a85e49a24475341efaba60af101d74b5e" target="_top" xlink:title="Returns the window title.">
<polygon fill="white" stroke="#666666" points="279,-30 148,-30 148,0 279,0 279,-30"/>
<text text-anchor="start" x="156" y="-18" font-family="Helvetica,sans-Serif" font-size="10.00">stdui::platform_window</text>
<text text-anchor="middle" x="213.5" y="-7" font-family="Helvetica,sans-Serif" font-size="10.00">::title</text>
</a>
</g>
</g>
<!-- Node1&#45;&gt;Node3 -->
<g id="edge2_Node000001_Node000003" class="edge">
<title>Node1&#45;&gt;Node3</title>
<g id="a_edge2_Node000001_Node000003"><a xlink:title=" ">
<path fill="none" stroke="#63b8ff" d="M112.26,-30.47C120.54,-29.19 129.2,-27.86 137.8,-26.53"/>
<polygon fill="#63b8ff" stroke="#63b8ff" points="138.51,-29.96 147.86,-24.98 137.44,-23.04 138.51,-29.96"/>
</a>
</g>
</g>
</g>
</svg>
