<?xml version="1.0" encoding="UTF-8" standalone="no"?>
<!DOCTYPE svg PUBLIC "-//W3C//DTD SVG 1.1//EN"
 "http://www.w3.org/Graphics/SVG/1.1/DTD/svg11.dtd">
<!-- Generated by graphviz version 2.43.0 (0)
 -->
<!-- Title: include/stdui/rendering/effect_renderer.hpp Pages: 1 -->
<svg width="562pt" height="269pt"
 viewBox="0.00 0.00 561.89 269.00" xmlns="http://www.w3.org/2000/svg" xmlns:xlink="http://www.w3.org/1999/xlink">
<g id="graph0" class="graph" transform="scale(1 1) rotate(0) translate(4 265)">
<title>include/stdui/rendering/effect_renderer.hpp</title>
<!-- Node1 -->
<g id="Node000001" class="node">
<title>Node1</title>
<g id="a_Node000001"><a xlink:title=" ">
<polygon fill="#999999" stroke="#666666" points="452.89,-261 324.89,-261 324.89,-231 452.89,-231 452.89,-261"/>
<text text-anchor="start" x="332.89" y="-249" font-family="Helvetica,sans-Serif" font-size="10.00">include/stdui/rendering</text>
<text text-anchor="middle" x="388.89" y="-238" font-family="Helvetica,sans-Serif" font-size="10.00">/effect_renderer.hpp</text>
</a>
</g>
</g>
<!-- Node2 -->
<g id="Node000002" class="node">
<title>Node2</title>
<g id="a_Node000002"><a xlink:href="render__node_8hpp.html" target="_top" xlink:title=" ">
<polygon fill="white" stroke="#666666" points="329.39,-195 204.39,-195 204.39,-165 329.39,-165 329.39,-195"/>
<text text-anchor="start" x="212.39" y="-183" font-family="Helvetica,sans-Serif" font-size="10.00">stdui/rendering/render</text>
<text text-anchor="middle" x="266.89" y="-172" font-family="Helvetica,sans-Serif" font-size="10.00">_node.hpp</text>
</a>
</g>
</g>
<!-- Node1&#45;&gt;Node2 -->
<g id="edge1_Node000001_Node000002" class="edge">
<title>Node1&#45;&gt;Node2</title>
<g id="a_edge1_Node000001_Node000002"><a xlink:title=" ">
<path fill="none" stroke="#63b8ff" d="M362.11,-230.95C344.63,-221.78 321.61,-209.71 302.58,-199.72"/>
<polygon fill="#63b8ff" stroke="#63b8ff" points="304.08,-196.56 293.6,-195.01 300.83,-202.76 304.08,-196.56"/>
</a>
</g>
</g>
<!-- Node11 -->
<g id="Node000011" class="node">
<title>Node11</title>
<g id="a_Node000011"><a xlink:href="geometry_8hpp.html" target="_top" xlink:title=" ">
<polygon fill="white" stroke="#666666" points="553.89,-74 443.89,-74 443.89,-55 553.89,-55 553.89,-74"/>
<text text-anchor="middle" x="498.89" y="-62" font-family="Helvetica,sans-Serif" font-size="10.00">stdui/geometry.hpp</text>
</a>
</g>
</g>
<!-- Node1&#45;&gt;Node11 -->
<g id="edge15_Node000001_Node000011" class="edge">
<title>Node1&#45;&gt;Node11</title>
<g id="a_edge15_Node000001_Node000011"><a xlink:title=" ">
<path fill="none" stroke="#63b8ff" d="M410.01,-230.73C436.61,-211.33 481,-173.86 498.89,-129 504.57,-114.74 504.07,-97.21 502.43,-84.19"/>
<polygon fill="#63b8ff" stroke="#63b8ff" points="505.86,-83.42 500.83,-74.09 498.94,-84.52 505.86,-83.42"/>
</a>
</g>
</g>
<!-- Node3 -->
<g id="Node000003" class="node">
<title>Node3</title>
<g id="a_Node000003"><a xlink:title=" ">
<polygon fill="#e0e0e0" stroke="#999999" points="192.89,-19 142.89,-19 142.89,0 192.89,0 192.89,-19"/>
<text text-anchor="middle" x="167.89" y="-7" font-family="Helvetica,sans-Serif" font-size="10.00">cstdint</text>
</a>
</g>
</g>
<!-- Node2&#45;&gt;Node3 -->
<g id="edge2_Node000002_Node000003" class="edge">
<title>Node2&#45;&gt;Node3</title>
<g id="a_edge2_Node000002_Node000003"><a xlink:title=" ">
<path fill="none" stroke="#63b8ff" d="M204.35,-175.71C136.34,-170.68 34.06,-158.33 9.89,-129 -31.36,-78.95 74.59,-38.17 132.75,-20.28"/>
<polygon fill="#63b8ff" stroke="#63b8ff" points="134.09,-23.54 142.66,-17.31 132.08,-16.83 134.09,-23.54"/>
</a>
</g>
</g>
<!-- Node4 -->
<g id="Node000004" class="node">
<title>Node4</title>
<g id="a_Node000004"><a xlink:title=" ">
<polygon fill="#e0e0e0" stroke="#999999" points="76.89,-129 18.89,-129 18.89,-110 76.89,-110 76.89,-129"/>
<text text-anchor="middle" x="47.89" y="-117" font-family="Helvetica,sans-Serif" font-size="10.00">memory</text>
</a>
</g>
</g>
<!-- Node2&#45;&gt;Node4 -->
<g id="edge3_Node000002_Node000004" class="edge">
<title>Node2&#45;&gt;Node4</title>
<g id="a_edge3_Node000002_Node000004"><a xlink:title=" ">
<path fill="none" stroke="#63b8ff" d="M214.43,-164.99C175.27,-154.53 122.61,-140.46 87.07,-130.97"/>
<polygon fill="#63b8ff" stroke="#63b8ff" points="87.64,-127.5 77.08,-128.3 85.83,-134.26 87.64,-127.5"/>
</a>
</g>
</g>
<!-- Node5 -->
<g id="Node000005" class="node">
<title>Node5</title>
<g id="a_Node000005"><a xlink:title=" ">
<polygon fill="#e0e0e0" stroke="#999999" points="150.89,-129 94.89,-129 94.89,-110 150.89,-110 150.89,-129"/>
<text text-anchor="middle" x="122.89" y="-117" font-family="Helvetica,sans-Serif" font-size="10.00">optional</text>
</a>
</g>
</g>
<!-- Node2&#45;&gt;Node5 -->
<g id="edge4_Node000002_Node000005" class="edge">
<title>Node2&#45;&gt;Node5</title>
<g id="a_edge4_Node000002_Node000005"><a xlink:title=" ">
<path fill="none" stroke="#63b8ff" d="M232.39,-164.99C208.37,-155.23 176.61,-142.33 153.49,-132.93"/>
<polygon fill="#63b8ff" stroke="#63b8ff" points="154.73,-129.66 144.15,-129.14 152.1,-136.15 154.73,-129.66"/>
</a>
</g>
</g>
<!-- Node6 -->
<g id="Node000006" class="node">
<title>Node6</title>
<g id="a_Node000006"><a xlink:title=" ">
<polygon fill="#e0e0e0" stroke="#999999" points="212.89,-129 168.89,-129 168.89,-110 212.89,-110 212.89,-129"/>
<text text-anchor="middle" x="190.89" y="-117" font-family="Helvetica,sans-Serif" font-size="10.00">string</text>
</a>
</g>
</g>
<!-- Node2&#45;&gt;Node6 -->
<g id="edge5_Node000002_Node000006" class="edge">
<title>Node2&#45;&gt;Node6</title>
<g id="a_edge5_Node000002_Node000006"><a xlink:title=" ">
<path fill="none" stroke="#63b8ff" d="M248.49,-164.84C237.01,-156 222.24,-144.63 210.53,-135.62"/>
<polygon fill="#63b8ff" stroke="#63b8ff" points="212.33,-132.59 202.27,-129.27 208.06,-138.14 212.33,-132.59"/>
</a>
</g>
</g>
<!-- Node7 -->
<g id="Node000007" class="node">
<title>Node7</title>
<g id="a_Node000007"><a xlink:title=" ">
<polygon fill="#e0e0e0" stroke="#999999" points="274.39,-74 223.39,-74 223.39,-55 274.39,-55 274.39,-74"/>
<text text-anchor="middle" x="248.89" y="-62" font-family="Helvetica,sans-Serif" font-size="10.00">variant</text>
</a>
</g>
</g>
<!-- Node2&#45;&gt;Node7 -->
<g id="edge6_Node000002_Node000007" class="edge">
<title>Node2&#45;&gt;Node7</title>
<g id="a_edge6_Node000002_Node000007"><a xlink:title=" ">
<path fill="none" stroke="#63b8ff" d="M264.61,-164.63C261.37,-144.21 255.44,-106.81 251.86,-84.24"/>
<polygon fill="#63b8ff" stroke="#63b8ff" points="255.29,-83.56 250.27,-74.23 248.38,-84.65 255.29,-83.56"/>
</a>
</g>
</g>
<!-- Node8 -->
<g id="Node000008" class="node">
<title>Node8</title>
<g id="a_Node000008"><a xlink:title=" ">
<polygon fill="#e0e0e0" stroke="#999999" points="316.39,-129 269.39,-129 269.39,-110 316.39,-110 316.39,-129"/>
<text text-anchor="middle" x="292.89" y="-117" font-family="Helvetica,sans-Serif" font-size="10.00">vector</text>
</a>
</g>
</g>
<!-- Node2&#45;&gt;Node8 -->
<g id="edge7_Node000002_Node000008" class="edge">
<title>Node2&#45;&gt;Node8</title>
<g id="a_edge7_Node000002_Node000008"><a xlink:title=" ">
<path fill="none" stroke="#63b8ff" d="M273.18,-164.84C276.68,-156.95 281.08,-147.05 284.84,-138.61"/>
<polygon fill="#63b8ff" stroke="#63b8ff" points="288.13,-139.83 288.99,-129.27 281.73,-136.98 288.13,-139.83"/>
</a>
</g>
</g>
<!-- Node9 -->
<g id="Node000009" class="node">
<title>Node9</title>
<g id="a_Node000009"><a xlink:href="color_8hpp.html" target="_top" xlink:title=" ">
<polygon fill="white" stroke="#666666" points="388.89,-74 300.89,-74 300.89,-55 388.89,-55 388.89,-74"/>
<text text-anchor="middle" x="344.89" y="-62" font-family="Helvetica,sans-Serif" font-size="10.00">stdui/color.hpp</text>
</a>
</g>
</g>
<!-- Node2&#45;&gt;Node9 -->
<g id="edge8_Node000002_Node000009" class="edge">
<title>Node2&#45;&gt;Node9</title>
<g id="a_edge8_Node000002_Node000009"><a xlink:title=" ">
<path fill="none" stroke="#63b8ff" d="M288.58,-164.87C300.8,-155.91 315.45,-143.32 324.89,-129 333.82,-115.42 338.98,-97.6 341.81,-84.3"/>
<polygon fill="#63b8ff" stroke="#63b8ff" points="345.26,-84.85 343.67,-74.37 338.38,-83.55 345.26,-84.85"/>
</a>
</g>
</g>
<!-- Node10 -->
<g id="Node000010" class="node">
<title>Node10</title>
<g id="a_Node000010"><a xlink:href="effects_8hpp.html" target="_top" xlink:title=" ">
<polygon fill="white" stroke="#666666" points="470.89,-129 372.89,-129 372.89,-110 470.89,-110 470.89,-129"/>
<text text-anchor="middle" x="421.89" y="-117" font-family="Helvetica,sans-Serif" font-size="10.00">stdui/effects.hpp</text>
</a>
</g>
</g>
<!-- Node2&#45;&gt;Node10 -->
<g id="edge10_Node000002_Node000010" class="edge">
<title>Node2&#45;&gt;Node10</title>
<g id="a_edge10_Node000002_Node000010"><a xlink:title=" ">
<path fill="none" stroke="#63b8ff" d="M304.01,-164.99C330.1,-155.14 364.67,-142.1 389.61,-132.68"/>
<polygon fill="#63b8ff" stroke="#63b8ff" points="390.88,-135.94 399,-129.14 388.4,-129.4 390.88,-135.94"/>
</a>
</g>
</g>
<!-- Node2&#45;&gt;Node11 -->
<g id="edge14_Node000002_Node000011" class="edge">
<title>Node2&#45;&gt;Node11</title>
<g id="a_edge14_Node000002_Node000011"><a xlink:title=" ">
<path fill="none" stroke="#63b8ff" d="M329.39,-171.33C384.18,-163.39 458.35,-149.28 479.89,-129 492.05,-117.55 496.53,-98.66 498.12,-84.46"/>
<polygon fill="#63b8ff" stroke="#63b8ff" points="501.63,-84.53 498.88,-74.3 494.65,-84.01 501.63,-84.53"/>
</a>
</g>
</g>
<!-- Node9&#45;&gt;Node3 -->
<g id="edge9_Node000009_Node000003" class="edge">
<title>Node9&#45;&gt;Node3</title>
<g id="a_edge9_Node000009_Node000003"><a xlink:title=" ">
<path fill="none" stroke="#63b8ff" d="M316.45,-54.98C285.54,-45.73 236.13,-30.93 202.87,-20.97"/>
<polygon fill="#63b8ff" stroke="#63b8ff" points="203.68,-17.57 193.1,-18.05 201.68,-24.27 203.68,-17.57"/>
</a>
</g>
</g>
<!-- Node10&#45;&gt;Node7 -->
<g id="edge13_Node000010_Node000007" class="edge">
<title>Node10&#45;&gt;Node7</title>
<g id="a_edge13_Node000010_Node000007"><a xlink:title=" ">
<path fill="none" stroke="#63b8ff" d="M394.09,-109.98C364.23,-100.84 316.69,-86.27 284.2,-76.32"/>
<polygon fill="#63b8ff" stroke="#63b8ff" points="285.22,-72.97 274.64,-73.39 283.17,-79.66 285.22,-72.97"/>
</a>
</g>
</g>
<!-- Node10&#45;&gt;Node9 -->
<g id="edge11_Node000010_Node000009" class="edge">
<title>Node10&#45;&gt;Node9</title>
<g id="a_edge11_Node000010_Node000009"><a xlink:title=" ">
<path fill="none" stroke="#63b8ff" d="M409.51,-109.98C397.8,-101.92 379.97,-89.65 366,-80.03"/>
<polygon fill="#63b8ff" stroke="#63b8ff" points="367.7,-76.96 357.48,-74.17 363.73,-82.72 367.7,-76.96"/>
</a>
</g>
</g>
<!-- Node10&#45;&gt;Node11 -->
<g id="edge12_Node000010_Node000011" class="edge">
<title>Node10&#45;&gt;Node11</title>
<g id="a_edge12_Node000010_Node000011"><a xlink:title=" ">
<path fill="none" stroke="#63b8ff" d="M434.26,-109.98C445.97,-101.92 463.81,-89.65 477.77,-80.03"/>
<polygon fill="#63b8ff" stroke="#63b8ff" points="480.04,-82.72 486.29,-74.17 476.07,-76.96 480.04,-82.72"/>
</a>
</g>
</g>
</g>
</svg>
