<?xml version="1.0" encoding="UTF-8" standalone="no"?>
<!DOCTYPE svg PUBLIC "-//W3C//DTD SVG 1.1//EN"
 "http://www.w3.org/Graphics/SVG/1.1/DTD/svg11.dtd">
<!-- Generated by graphviz version 2.43.0 (0)
 -->
<!-- Title: include/stdui/core/grid.hpp Pages: 1 -->
<svg width="828pt" height="203pt"
 viewBox="0.00 0.00 827.81 203.00" xmlns="http://www.w3.org/2000/svg" xmlns:xlink="http://www.w3.org/1999/xlink">
<g id="graph0" class="graph" transform="scale(1 1) rotate(0) translate(4 199)">
<title>include/stdui/core/grid.hpp</title>
<!-- Node1 -->
<g id="Node000001" class="node">
<title>Node1</title>
<g id="a_Node000001"><a xlink:title=" ">
<polygon fill="#999999" stroke="#666666" points="571.81,-195 468.81,-195 468.81,-165 571.81,-165 571.81,-195"/>
<text text-anchor="start" x="476.81" y="-183" font-family="Helvetica,sans-Serif" font-size="10.00">include/stdui/core</text>
<text text-anchor="middle" x="520.31" y="-172" font-family="Helvetica,sans-Serif" font-size="10.00">/grid.hpp</text>
</a>
</g>
</g>
<!-- Node2 -->
<g id="Node000002" class="node">
<title>Node2</title>
<g id="a_Node000002"><a xlink:href="geometry_8hpp.html" target="_top" xlink:title=" ">
<polygon fill="white" stroke="#666666" points="151.31,-74 17.31,-74 17.31,-55 151.31,-55 151.31,-74"/>
<text text-anchor="middle" x="84.31" y="-62" font-family="Helvetica,sans-Serif" font-size="10.00">stdui/core/geometry.hpp</text>
</a>
</g>
</g>
<!-- Node1&#45;&gt;Node2 -->
<g id="edge1_Node000001_Node000002" class="edge">
<title>Node1&#45;&gt;Node2</title>
<g id="a_edge1_Node000001_Node000002"><a xlink:title=" ">
<path fill="none" stroke="#63b8ff" d="M468.44,-166.3C428.03,-156.35 370.54,-142.04 320.31,-129 251.82,-111.23 172.41,-89.66 125.38,-76.79"/>
<polygon fill="#63b8ff" stroke="#63b8ff" points="126.13,-73.37 115.56,-74.1 124.28,-80.12 126.13,-73.37"/>
</a>
</g>
</g>
<!-- Node3 -->
<g id="Node000003" class="node">
<title>Node3</title>
<g id="a_Node000003"><a xlink:href="layout_8hpp.html" target="_top" xlink:title=" ">
<polygon fill="white" stroke="#666666" points="579.81,-129 460.81,-129 460.81,-110 579.81,-110 579.81,-129"/>
<text text-anchor="middle" x="520.31" y="-117" font-family="Helvetica,sans-Serif" font-size="10.00">stdui/core/layout.hpp</text>
</a>
</g>
</g>
<!-- Node1&#45;&gt;Node3 -->
<g id="edge2_Node000001_Node000003" class="edge">
<title>Node1&#45;&gt;Node3</title>
<g id="a_edge2_Node000001_Node000003"><a xlink:title=" ">
<path fill="none" stroke="#63b8ff" d="M520.31,-164.84C520.31,-157.21 520.31,-147.7 520.31,-139.45"/>
<polygon fill="#63b8ff" stroke="#63b8ff" points="523.81,-139.27 520.31,-129.27 516.81,-139.27 523.81,-139.27"/>
</a>
</g>
</g>
<!-- Node5 -->
<g id="Node000005" class="node">
<title>Node5</title>
<g id="a_Node000005"><a xlink:title=" ">
<polygon fill="#e0e0e0" stroke="#999999" points="225.81,-19 172.81,-19 172.81,0 225.81,0 225.81,-19"/>
<text text-anchor="middle" x="199.31" y="-7" font-family="Helvetica,sans-Serif" font-size="10.00">cstddef</text>
</a>
</g>
</g>
<!-- Node1&#45;&gt;Node5 -->
<g id="edge15_Node000001_Node000005" class="edge">
<title>Node1&#45;&gt;Node5</title>
<g id="a_edge15_Node000001_Node000005"><a xlink:title=" ">
<path fill="none" stroke="#63b8ff" d="M468.74,-176.51C350.43,-169.59 65.25,-145.67 8.31,-74 -33.58,-21.28 95.8,-11.95 162.36,-10.56"/>
<polygon fill="#63b8ff" stroke="#63b8ff" points="162.52,-14.05 172.46,-10.4 162.41,-7.06 162.52,-14.05"/>
</a>
</g>
</g>
<!-- Node6 -->
<g id="Node000006" class="node">
<title>Node6</title>
<g id="a_Node000006"><a xlink:title=" ">
<polygon fill="#e0e0e0" stroke="#999999" points="233.31,-74 169.31,-74 169.31,-55 233.31,-55 233.31,-74"/>
<text text-anchor="middle" x="201.31" y="-62" font-family="Helvetica,sans-Serif" font-size="10.00">algorithm</text>
</a>
</g>
</g>
<!-- Node1&#45;&gt;Node6 -->
<g id="edge13_Node000001_Node000006" class="edge">
<title>Node1&#45;&gt;Node6</title>
<g id="a_edge13_Node000001_Node000006"><a xlink:title=" ">
<path fill="none" stroke="#63b8ff" d="M479.29,-164.93C450.45,-154.99 410.97,-141.31 376.31,-129 326.69,-111.38 269.35,-90.47 234.21,-77.59"/>
<polygon fill="#63b8ff" stroke="#63b8ff" points="235.08,-74.18 224.48,-74.03 232.67,-80.75 235.08,-74.18"/>
</a>
</g>
</g>
<!-- Node7 -->
<g id="Node000007" class="node">
<title>Node7</title>
<g id="a_Node000007"><a xlink:title=" ">
<polygon fill="#e0e0e0" stroke="#999999" points="311.31,-74 251.31,-74 251.31,-55 311.31,-55 311.31,-74"/>
<text text-anchor="middle" x="281.31" y="-62" font-family="Helvetica,sans-Serif" font-size="10.00">concepts</text>
</a>
</g>
</g>
<!-- Node1&#45;&gt;Node7 -->
<g id="edge14_Node000001_Node000007" class="edge">
<title>Node1&#45;&gt;Node7</title>
<g id="a_edge14_Node000001_Node000007"><a xlink:title=" ">
<path fill="none" stroke="#63b8ff" d="M490.52,-164.85C443.77,-142.65 353.86,-99.95 308.66,-78.49"/>
<polygon fill="#63b8ff" stroke="#63b8ff" points="310,-75.25 299.47,-74.12 307,-81.58 310,-75.25"/>
</a>
</g>
</g>
<!-- Node9 -->
<g id="Node000009" class="node">
<title>Node9</title>
<g id="a_Node000009"><a xlink:title=" ">
<polygon fill="#e0e0e0" stroke="#999999" points="633.31,-74 583.31,-74 583.31,-55 633.31,-55 633.31,-74"/>
<text text-anchor="middle" x="608.31" y="-62" font-family="Helvetica,sans-Serif" font-size="10.00">ranges</text>
</a>
</g>
</g>
<!-- Node1&#45;&gt;Node9 -->
<g id="edge16_Node000001_Node000009" class="edge">
<title>Node1&#45;&gt;Node9</title>
<g id="a_edge16_Node000001_Node000009"><a xlink:title=" ">
<path fill="none" stroke="#63b8ff" d="M547.13,-164.82C561.19,-156.17 577.65,-143.9 588.31,-129 597.87,-115.63 602.98,-97.53 605.63,-84.07"/>
<polygon fill="#63b8ff" stroke="#63b8ff" points="609.11,-84.51 607.33,-74.06 602.21,-83.34 609.11,-84.51"/>
</a>
</g>
</g>
<!-- Node10 -->
<g id="Node000010" class="node">
<title>Node10</title>
<g id="a_Node000010"><a xlink:title=" ">
<polygon fill="#e0e0e0" stroke="#999999" points="691.31,-74 651.31,-74 651.31,-55 691.31,-55 691.31,-74"/>
<text text-anchor="middle" x="671.31" y="-62" font-family="Helvetica,sans-Serif" font-size="10.00">span</text>
</a>
</g>
</g>
<!-- Node1&#45;&gt;Node10 -->
<g id="edge17_Node000001_Node000010" class="edge">
<title>Node1&#45;&gt;Node10</title>
<g id="a_edge17_Node000001_Node000010"><a xlink:title=" ">
<path fill="none" stroke="#63b8ff" d="M548.9,-164.99C566.46,-155.8 589.02,-142.94 607.31,-129 626.07,-114.69 644.92,-95.22 657.25,-81.63"/>
<polygon fill="#63b8ff" stroke="#63b8ff" points="659.99,-83.81 664.03,-74.02 654.77,-79.16 659.99,-83.81"/>
</a>
</g>
</g>
<!-- Node11 -->
<g id="Node000011" class="node">
<title>Node11</title>
<g id="a_Node000011"><a xlink:title=" ">
<polygon fill="#e0e0e0" stroke="#999999" points="754.81,-74 709.81,-74 709.81,-55 754.81,-55 754.81,-74"/>
<text text-anchor="middle" x="732.31" y="-62" font-family="Helvetica,sans-Serif" font-size="10.00">utility</text>
</a>
</g>
</g>
<!-- Node1&#45;&gt;Node11 -->
<g id="edge18_Node000001_Node000011" class="edge">
<title>Node1&#45;&gt;Node11</title>
<g id="a_edge18_Node000001_Node000011"><a xlink:title=" ">
<path fill="none" stroke="#63b8ff" d="M555.24,-164.95C577.66,-155.57 607.17,-142.5 632.31,-129 660.75,-113.73 691.9,-93.31 711.76,-79.8"/>
<polygon fill="#63b8ff" stroke="#63b8ff" points="713.77,-82.67 720.03,-74.12 709.81,-76.89 713.77,-82.67"/>
</a>
</g>
</g>
<!-- Node12 -->
<g id="Node000012" class="node">
<title>Node12</title>
<g id="a_Node000012"><a xlink:title=" ">
<polygon fill="#e0e0e0" stroke="#999999" points="819.81,-74 772.81,-74 772.81,-55 819.81,-55 819.81,-74"/>
<text text-anchor="middle" x="796.31" y="-62" font-family="Helvetica,sans-Serif" font-size="10.00">vector</text>
</a>
</g>
</g>
<!-- Node1&#45;&gt;Node12 -->
<g id="edge19_Node000001_Node000012" class="edge">
<title>Node1&#45;&gt;Node12</title>
<g id="a_edge19_Node000001_Node000012"><a xlink:title=" ">
<path fill="none" stroke="#63b8ff" d="M563.94,-164.95C592.25,-155.5 629.8,-142.38 662.31,-129 700.68,-113.2 743.86,-92.12 770.58,-78.67"/>
<polygon fill="#63b8ff" stroke="#63b8ff" points="772.29,-81.73 779.64,-74.09 769.13,-75.48 772.29,-81.73"/>
</a>
</g>
</g>
<!-- Node3&#45;&gt;Node2 -->
<g id="edge3_Node000003_Node000002" class="edge">
<title>Node3&#45;&gt;Node2</title>
<g id="a_edge3_Node000003_Node000002"><a xlink:title=" ">
<path fill="none" stroke="#63b8ff" d="M460.6,-111.24C382.94,-101.8 247.15,-85.29 161.68,-74.9"/>
<polygon fill="#63b8ff" stroke="#63b8ff" points="161.86,-71.4 151.51,-73.67 161.01,-78.35 161.86,-71.4"/>
</a>
</g>
</g>
<!-- Node4 -->
<g id="Node000004" class="node">
<title>Node4</title>
<g id="a_Node000004"><a xlink:href="layout__options_8hpp.html" target="_top" xlink:title=" ">
<polygon fill="white" stroke="#666666" points="490.81,-74 329.81,-74 329.81,-55 490.81,-55 490.81,-74"/>
<text text-anchor="middle" x="410.31" y="-62" font-family="Helvetica,sans-Serif" font-size="10.00">stdui/core/layout_options.hpp</text>
</a>
</g>
</g>
<!-- Node3&#45;&gt;Node4 -->
<g id="edge4_Node000003_Node000004" class="edge">
<title>Node3&#45;&gt;Node4</title>
<g id="a_edge4_Node000003_Node000004"><a xlink:title=" ">
<path fill="none" stroke="#63b8ff" d="M502.63,-109.98C485.02,-101.5 457.73,-88.35 437.38,-78.54"/>
<polygon fill="#63b8ff" stroke="#63b8ff" points="438.83,-75.36 428.3,-74.17 435.79,-81.66 438.83,-75.36"/>
</a>
</g>
</g>
<!-- Node3&#45;&gt;Node6 -->
<g id="edge6_Node000003_Node000006" class="edge">
<title>Node3&#45;&gt;Node6</title>
<g id="a_edge6_Node000003_Node000006"><a xlink:title=" ">
<path fill="none" stroke="#63b8ff" d="M462.14,-109.98C408,-101.87 324.83,-88.96 243.43,-74.14"/>
<polygon fill="#63b8ff" stroke="#63b8ff" points="243.98,-70.68 233.51,-72.32 242.71,-77.57 243.98,-70.68"/>
</a>
</g>
</g>
<!-- Node3&#45;&gt;Node7 -->
<g id="edge7_Node000003_Node000007" class="edge">
<title>Node3&#45;&gt;Node7</title>
<g id="a_edge7_Node000003_Node000007"><a xlink:title=" ">
<path fill="none" stroke="#63b8ff" d="M481.91,-109.98C437.96,-100.24 366.3,-84.35 321.58,-74.43"/>
<polygon fill="#63b8ff" stroke="#63b8ff" points="322.17,-70.98 311.65,-72.23 320.66,-77.81 322.17,-70.98"/>
</a>
</g>
</g>
<!-- Node8 -->
<g id="Node000008" class="node">
<title>Node8</title>
<g id="a_Node000008"><a xlink:title=" ">
<polygon fill="#e0e0e0" stroke="#999999" points="565.31,-74 509.31,-74 509.31,-55 565.31,-55 565.31,-74"/>
<text text-anchor="middle" x="537.31" y="-62" font-family="Helvetica,sans-Serif" font-size="10.00">optional</text>
</a>
</g>
</g>
<!-- Node3&#45;&gt;Node8 -->
<g id="edge8_Node000003_Node000008" class="edge">
<title>Node3&#45;&gt;Node8</title>
<g id="a_edge8_Node000003_Node000008"><a xlink:title=" ">
<path fill="none" stroke="#63b8ff" d="M523.11,-109.75C525.37,-102.72 528.61,-92.62 531.42,-83.84"/>
<polygon fill="#63b8ff" stroke="#63b8ff" points="534.83,-84.68 534.55,-74.09 528.16,-82.54 534.83,-84.68"/>
</a>
</g>
</g>
<!-- Node3&#45;&gt;Node9 -->
<g id="edge9_Node000003_Node000009" class="edge">
<title>Node3&#45;&gt;Node9</title>
<g id="a_edge9_Node000003_Node000009"><a xlink:title=" ">
<path fill="none" stroke="#63b8ff" d="M534.45,-109.98C548.09,-101.77 568.99,-89.18 585.08,-79.49"/>
<polygon fill="#63b8ff" stroke="#63b8ff" points="587.15,-82.33 593.91,-74.17 583.54,-76.33 587.15,-82.33"/>
</a>
</g>
</g>
<!-- Node3&#45;&gt;Node10 -->
<g id="edge10_Node000003_Node000010" class="edge">
<title>Node3&#45;&gt;Node10</title>
<g id="a_edge10_Node000003_Node000010"><a xlink:title=" ">
<path fill="none" stroke="#63b8ff" d="M544.57,-109.98C570.85,-100.76 612.82,-86.03 641.2,-76.07"/>
<polygon fill="#63b8ff" stroke="#63b8ff" points="642.7,-79.25 650.98,-72.63 640.38,-72.64 642.7,-79.25"/>
</a>
</g>
</g>
<!-- Node3&#45;&gt;Node11 -->
<g id="edge11_Node000003_Node000011" class="edge">
<title>Node3&#45;&gt;Node11</title>
<g id="a_edge11_Node000003_Node000011"><a xlink:title=" ">
<path fill="none" stroke="#63b8ff" d="M555.53,-109.98C589.87,-101.64 643.8,-88.42 699.85,-74.08"/>
<polygon fill="#63b8ff" stroke="#63b8ff" points="700.78,-77.46 709.59,-71.58 699.04,-70.68 700.78,-77.46"/>
</a>
</g>
</g>
<!-- Node3&#45;&gt;Node12 -->
<g id="edge12_Node000003_Node000012" class="edge">
<title>Node3&#45;&gt;Node12</title>
<g id="a_edge12_Node000003_Node000012"><a xlink:title=" ">
<path fill="none" stroke="#63b8ff" d="M573.86,-109.99C621.24,-102.17 692.42,-89.75 762.69,-74.23"/>
<polygon fill="#63b8ff" stroke="#63b8ff" points="763.59,-77.62 772.59,-72.02 762.07,-70.78 763.59,-77.62"/>
</a>
</g>
</g>
<!-- Node4&#45;&gt;Node5 -->
<g id="edge5_Node000004_Node000005" class="edge">
<title>Node4&#45;&gt;Node5</title>
<g id="a_edge5_Node000004_Node000005"><a xlink:title=" ">
<path fill="none" stroke="#63b8ff" d="M376.41,-54.98C337.93,-45.32 275.41,-29.62 235.87,-19.68"/>
<polygon fill="#63b8ff" stroke="#63b8ff" points="236.65,-16.27 226.1,-17.23 234.94,-23.06 236.65,-16.27"/>
</a>
</g>
</g>
</g>
</svg>
