<?xml version="1.0" encoding="UTF-8" standalone="no"?>
<!DOCTYPE svg PUBLIC "-//W3C//DTD SVG 1.1//EN"
 "http://www.w3.org/Graphics/SVG/1.1/DTD/svg11.dtd">
<!-- Generated by graphviz version 2.43.0 (0)
 -->
<!-- Title: stdui::arrange_hstack Pages: 1 -->
<svg width="567pt" height="88pt"
 viewBox="0.00 0.00 567.00 87.50" xmlns="http://www.w3.org/2000/svg" xmlns:xlink="http://www.w3.org/1999/xlink">
<g id="graph0" class="graph" transform="scale(1 1) rotate(0) translate(4 83.5)">
<title>stdui::arrange_hstack</title>
<!-- Node1 -->
<g id="Node000001" class="node">
<title>Node1</title>
<g id="a_Node000001"><a xlink:title="Places measured horizontal children according to direction and alignment.">
<polygon fill="#999999" stroke="#666666" points="559,-37 437,-37 437,-18 559,-18 559,-37"/>
<text text-anchor="middle" x="498" y="-25" font-family="Helvetica,sans-Serif" font-size="10.00">stdui::arrange_hstack</text>
</a>
</g>
</g>
<!-- Node2 -->
<g id="Node000002" class="node">
<title>Node2</title>
<g id="a_Node000002"><a xlink:href="namespacestdui.html#a9786ce1275be0d14fd779b1e7328f101" target="_top" xlink:title="Measures and arranges children in one horizontal stack pass.">
<polygon fill="white" stroke="#666666" points="401,-56 286,-56 286,-37 401,-37 401,-56"/>
<text text-anchor="middle" x="343.5" y="-44" font-family="Helvetica,sans-Serif" font-size="10.00">stdui::layout_hstack</text>
</a>
</g>
</g>
<!-- Node1&#45;&gt;Node2 -->
<g id="edge1_Node000001_Node000002" class="edge">
<title>Node1&#45;&gt;Node2</title>
<g id="a_edge1_Node000001_Node000002"><a xlink:title=" ">
<path fill="none" stroke="#63b8ff" d="M426.8,-36.25C418.27,-37.31 409.65,-38.38 401.35,-39.42"/>
<polygon fill="#63b8ff" stroke="#63b8ff" points="427.24,-39.72 436.73,-35.01 426.37,-32.77 427.24,-39.72"/>
</a>
</g>
</g>
<!-- Node5 -->
<g id="Node000005" class="node">
<title>Node5</title>
<g id="a_Node000005"><a xlink:href="namespacestdui.html#a3cff7be9f3e0ae889fd0700a292add36" target="_top" xlink:title="Measures and arranges a horizontal stack using complete options.">
<polygon fill="white" stroke="#666666" points="401,-19 286,-19 286,0 401,0 401,-19"/>
<text text-anchor="middle" x="343.5" y="-7" font-family="Helvetica,sans-Serif" font-size="10.00">stdui::layout_hstack</text>
</a>
</g>
</g>
<!-- Node1&#45;&gt;Node5 -->
<g id="edge5_Node000001_Node000005" class="edge">
<title>Node1&#45;&gt;Node5</title>
<g id="a_edge5_Node000001_Node000005"><a xlink:title=" ">
<path fill="none" stroke="#63b8ff" d="M426.8,-19.21C418.27,-18.21 409.65,-17.19 401.35,-16.21"/>
<polygon fill="#63b8ff" stroke="#63b8ff" points="426.39,-22.69 436.73,-20.39 427.21,-15.74 426.39,-22.69"/>
</a>
</g>
</g>
<!-- Node3 -->
<g id="Node000003" class="node">
<title>Node3</title>
<g id="a_Node000003"><a xlink:href="structstdui_1_1layout__node.html#ac66405d4bbb134252e2de00800e3ed69" target="_top" xlink:title=" ">
<polygon fill="white" stroke="#666666" points="250,-61.5 143,-61.5 143,-31.5 250,-31.5 250,-61.5"/>
<text text-anchor="start" x="151" y="-49.5" font-family="Helvetica,sans-Serif" font-size="10.00">stdui::layout_node</text>
<text text-anchor="middle" x="196.5" y="-38.5" font-family="Helvetica,sans-Serif" font-size="10.00">::arrange_children</text>
</a>
</g>
</g>
<!-- Node2&#45;&gt;Node3 -->
<g id="edge2_Node000002_Node000003" class="edge">
<title>Node2&#45;&gt;Node3</title>
<g id="a_edge2_Node000002_Node000003"><a xlink:title=" ">
<path fill="none" stroke="#63b8ff" d="M275.45,-46.5C267.06,-46.5 258.58,-46.5 250.44,-46.5"/>
<polygon fill="#63b8ff" stroke="#63b8ff" points="275.61,-50 285.61,-46.5 275.61,-43 275.61,-50"/>
</a>
</g>
</g>
<!-- Node4 -->
<g id="Node000004" class="node">
<title>Node4</title>
<g id="a_Node000004"><a xlink:href="structstdui_1_1layout__node.html#a376b8ecf764209ca245dfbd6ac24bcc2" target="_top" xlink:title=" ">
<polygon fill="white" stroke="#666666" points="107,-61.5 0,-61.5 0,-31.5 107,-31.5 107,-61.5"/>
<text text-anchor="start" x="8" y="-49.5" font-family="Helvetica,sans-Serif" font-size="10.00">stdui::layout_node</text>
<text text-anchor="middle" x="53.5" y="-38.5" font-family="Helvetica,sans-Serif" font-size="10.00">::arrange</text>
</a>
</g>
</g>
<!-- Node3&#45;&gt;Node4 -->
<g id="edge3_Node000003_Node000004" class="edge">
<title>Node3&#45;&gt;Node4</title>
<g id="a_edge3_Node000003_Node000004"><a xlink:title=" ">
<path fill="none" stroke="#63b8ff" d="M132.95,-46.5C124.3,-46.5 115.49,-46.5 107.05,-46.5"/>
<polygon fill="#63b8ff" stroke="#63b8ff" points="133,-50 143,-46.5 133,-43 133,-50"/>
</a>
</g>
</g>
<!-- Node4&#45;&gt;Node4 -->
<g id="edge4_Node000004_Node000004" class="edge">
<title>Node4&#45;&gt;Node4</title>
<g id="a_edge4_Node000004_Node000004"><a xlink:title=" ">
<path fill="none" stroke="#63b8ff" d="M78.36,-72.1C74.96,-76.47 66.67,-79.5 53.5,-79.5 31.31,-79.5 22.99,-70.91 28.54,-61.78"/>
<polygon fill="#63b8ff" stroke="#63b8ff" points="81.86,-71.81 78.46,-61.78 74.86,-71.74 81.86,-71.81"/>
</a>
</g>
</g>
</g>
</svg>
