<?xml version="1.0" encoding="UTF-8" standalone="no"?>
<!DOCTYPE svg PUBLIC "-//W3C//DTD SVG 1.1//EN"
 "http://www.w3.org/Graphics/SVG/1.1/DTD/svg11.dtd">
<!-- Generated by graphviz version 2.43.0 (0)
 -->
<!-- Title: stdui::materialize_layout Pages: 1 -->
<svg width="265pt" height="56pt"
 viewBox="0.00 0.00 265.00 56.00" xmlns="http://www.w3.org/2000/svg" xmlns:xlink="http://www.w3.org/1999/xlink">
<g id="graph0" class="graph" transform="scale(1 1) rotate(0) translate(4 52)">
<title>stdui::materialize_layout</title>
<!-- Node1 -->
<g id="Node000001" class="node">
<title>Node1</title>
<g id="a_Node000001"><a xlink:title="Creates a layout tree from a headless expression snapshot.">
<polygon fill="#999999" stroke="#666666" points="102,-30 0,-30 0,0 102,0 102,-30"/>
<text text-anchor="start" x="8" y="-18" font-family="Helvetica,sans-Serif" font-size="10.00">stdui::materialize</text>
<text text-anchor="middle" x="51" y="-7" font-family="Helvetica,sans-Serif" font-size="10.00">_layout</text>
</a>
</g>
</g>
<!-- Node1&#45;&gt;Node1 -->
<g id="edge1_Node000001_Node000001" class="edge">
<title>Node1&#45;&gt;Node1</title>
<g id="a_edge1_Node000001_Node000001"><a xlink:title=" ">
<path fill="none" stroke="#63b8ff" d="M25.34,-30.28C19.63,-39.41 28.19,-48 51,-48 64.54,-48 73.06,-44.97 76.56,-40.6"/>
<polygon fill="#63b8ff" stroke="#63b8ff" points="80.06,-40.31 76.66,-30.28 73.06,-40.24 80.06,-40.31"/>
</a>
</g>
</g>
<!-- Node2 -->
<g id="Node000002" class="node">
<title>Node2</title>
<g id="a_Node000002"><a xlink:href="namespacestdui.html#aed2b3e61f3f926e3d36a0b6a1e7cf77f" target="_top" xlink:title=" ">
<polygon fill="white" stroke="#666666" points="257,-24.5 138,-24.5 138,-5.5 257,-5.5 257,-24.5"/>
<text text-anchor="middle" x="197.5" y="-12.5" font-family="Helvetica,sans-Serif" font-size="10.00">stdui::to_layout_kind</text>
</a>
</g>
</g>
<!-- Node1&#45;&gt;Node2 -->
<g id="edge2_Node000001_Node000002" class="edge">
<title>Node1&#45;&gt;Node2</title>
<g id="a_edge2_Node000001_Node000002"><a xlink:title=" ">
<path fill="none" stroke="#63b8ff" d="M102.13,-15C110.39,-15 119.08,-15 127.7,-15"/>
<polygon fill="#63b8ff" stroke="#63b8ff" points="127.77,-18.5 137.77,-15 127.77,-11.5 127.77,-18.5"/>
</a>
</g>
</g>
</g>
</svg>
