<?xml version="1.0" encoding="UTF-8" standalone="no"?>
<!DOCTYPE svg PUBLIC "-//W3C//DTD SVG 1.1//EN"
 "http://www.w3.org/Graphics/SVG/1.1/DTD/svg11.dtd">
<!-- Generated by graphviz version 2.43.0 (0)
 -->
<!-- Title: stdui::measure_overlay Pages: 1 -->
<svg width="580pt" height="99pt"
 viewBox="0.00 0.00 580.00 99.00" xmlns="http://www.w3.org/2000/svg" xmlns:xlink="http://www.w3.org/1999/xlink">
<g id="graph0" class="graph" transform="scale(1 1) rotate(0) translate(4 95)">
<title>stdui::measure_overlay</title>
<!-- Node1 -->
<g id="Node000001" class="node">
<title>Node1</title>
<g id="a_Node000001"><a xlink:title="Measures overlapping children as a single composite extent.">
<polygon fill="#999999" stroke="#666666" points="572,-45.5 441,-45.5 441,-26.5 572,-26.5 572,-45.5"/>
<text text-anchor="middle" x="506.5" y="-33.5" font-family="Helvetica,sans-Serif" font-size="10.00">stdui::measure_overlay</text>
</a>
</g>
</g>
<!-- Node2 -->
<g id="Node000002" class="node">
<title>Node2</title>
<g id="a_Node000002"><a xlink:href="namespacestdui.html#aab8df1b2a3fb52b92a385eaa8fc98031" target="_top" xlink:title="Measures and arranges children in one overlay pass.">
<polygon fill="white" stroke="#666666" points="405,-67.5 286,-67.5 286,-48.5 405,-48.5 405,-67.5"/>
<text text-anchor="middle" x="345.5" y="-55.5" font-family="Helvetica,sans-Serif" font-size="10.00">stdui::layout_overlay</text>
</a>
</g>
</g>
<!-- Node1&#45;&gt;Node2 -->
<g id="edge1_Node000001_Node000002" class="edge">
<title>Node1&#45;&gt;Node2</title>
<g id="a_edge1_Node000001_Node000002"><a xlink:title=" ">
<path fill="none" stroke="#63b8ff" d="M430.81,-46.33C422.22,-47.52 413.56,-48.72 405.23,-49.87"/>
<polygon fill="#63b8ff" stroke="#63b8ff" points="431.4,-49.79 440.83,-44.95 430.44,-42.85 431.4,-49.79"/>
</a>
</g>
</g>
<!-- Node5 -->
<g id="Node000005" class="node">
<title>Node5</title>
<g id="a_Node000005"><a xlink:href="structstdui_1_1layout__node.html#ab2c6e7d37f0986d2483ebaca7f19ffd5" target="_top" xlink:title=" ">
<polygon fill="white" stroke="#666666" points="399,-30 292,-30 292,0 399,0 399,-30"/>
<text text-anchor="start" x="300" y="-18" font-family="Helvetica,sans-Serif" font-size="10.00">stdui::layout_node</text>
<text text-anchor="middle" x="345.5" y="-7" font-family="Helvetica,sans-Serif" font-size="10.00">::measure</text>
</a>
</g>
</g>
<!-- Node1&#45;&gt;Node5 -->
<g id="edge5_Node000001_Node000005" class="edge">
<title>Node1&#45;&gt;Node5</title>
<g id="a_edge5_Node000001_Node000005"><a xlink:title=" ">
<path fill="none" stroke="#63b8ff" d="M430.75,-26.13C420.18,-24.73 409.49,-23.32 399.44,-21.99"/>
<polygon fill="#63b8ff" stroke="#63b8ff" points="430.46,-29.62 440.83,-27.46 431.37,-22.68 430.46,-29.62"/>
</a>
</g>
</g>
<!-- Node3 -->
<g id="Node000003" class="node">
<title>Node3</title>
<g id="a_Node000003"><a xlink:href="structstdui_1_1layout__node.html#ac66405d4bbb134252e2de00800e3ed69" target="_top" xlink:title=" ">
<polygon fill="white" stroke="#666666" points="250,-73 143,-73 143,-43 250,-43 250,-73"/>
<text text-anchor="start" x="151" y="-61" font-family="Helvetica,sans-Serif" font-size="10.00">stdui::layout_node</text>
<text text-anchor="middle" x="196.5" y="-50" font-family="Helvetica,sans-Serif" font-size="10.00">::arrange_children</text>
</a>
</g>
</g>
<!-- Node2&#45;&gt;Node3 -->
<g id="edge2_Node000002_Node000003" class="edge">
<title>Node2&#45;&gt;Node3</title>
<g id="a_edge2_Node000002_Node000003"><a xlink:title=" ">
<path fill="none" stroke="#63b8ff" d="M275.88,-58C267.22,-58 258.47,-58 250.11,-58"/>
<polygon fill="#63b8ff" stroke="#63b8ff" points="275.98,-61.5 285.98,-58 275.98,-54.5 275.98,-61.5"/>
</a>
</g>
</g>
<!-- Node4 -->
<g id="Node000004" class="node">
<title>Node4</title>
<g id="a_Node000004"><a xlink:href="structstdui_1_1layout__node.html#a376b8ecf764209ca245dfbd6ac24bcc2" target="_top" xlink:title=" ">
<polygon fill="white" stroke="#666666" points="107,-73 0,-73 0,-43 107,-43 107,-73"/>
<text text-anchor="start" x="8" y="-61" font-family="Helvetica,sans-Serif" font-size="10.00">stdui::layout_node</text>
<text text-anchor="middle" x="53.5" y="-50" font-family="Helvetica,sans-Serif" font-size="10.00">::arrange</text>
</a>
</g>
</g>
<!-- Node3&#45;&gt;Node4 -->
<g id="edge3_Node000003_Node000004" class="edge">
<title>Node3&#45;&gt;Node4</title>
<g id="a_edge3_Node000003_Node000004"><a xlink:title=" ">
<path fill="none" stroke="#63b8ff" d="M132.95,-58C124.3,-58 115.49,-58 107.05,-58"/>
<polygon fill="#63b8ff" stroke="#63b8ff" points="133,-61.5 143,-58 133,-54.5 133,-61.5"/>
</a>
</g>
</g>
<!-- Node4&#45;&gt;Node4 -->
<g id="edge4_Node000004_Node000004" class="edge">
<title>Node4&#45;&gt;Node4</title>
<g id="a_edge4_Node000004_Node000004"><a xlink:title=" ">
<path fill="none" stroke="#63b8ff" d="M78.36,-83.6C74.96,-87.97 66.67,-91 53.5,-91 31.31,-91 22.99,-82.41 28.54,-73.28"/>
<polygon fill="#63b8ff" stroke="#63b8ff" points="81.86,-83.31 78.46,-73.28 74.86,-83.24 81.86,-83.31"/>
</a>
</g>
</g>
</g>
</svg>
