<?xml version="1.0" encoding="UTF-8" standalone="no"?>
<!DOCTYPE svg PUBLIC "-//W3C//DTD SVG 1.1//EN"
 "http://www.w3.org/Graphics/SVG/1.1/DTD/svg11.dtd">
<!-- Generated by graphviz version 2.43.0 (0)
 -->
<!-- Title: stdui::layout_grid Pages: 1 -->
<svg width="583pt" height="101pt"
 viewBox="0.00 0.00 583.00 101.00" xmlns="http://www.w3.org/2000/svg" xmlns:xlink="http://www.w3.org/1999/xlink">
<g id="graph0" class="graph" transform="scale(1 1) rotate(0) translate(4 97)">
<title>stdui::layout_grid</title>
<!-- Node1 -->
<g id="Node000001" class="node">
<title>Node1</title>
<g id="a_Node000001"><a xlink:title="Measures and arranges children in one grid pass.">
<polygon fill="#999999" stroke="#666666" points="101,-56 0,-56 0,-37 101,-37 101,-56"/>
<text text-anchor="middle" x="50.5" y="-44" font-family="Helvetica,sans-Serif" font-size="10.00">stdui::layout_grid</text>
</a>
</g>
</g>
<!-- Node2 -->
<g id="Node000002" class="node">
<title>Node2</title>
<g id="a_Node000002"><a xlink:href="namespacestdui.html#a7c9af4b732407bc733baa009eb51287b" target="_top" xlink:title="Places measured children into grid cells.">
<polygon fill="white" stroke="#666666" points="259.5,-93 151.5,-93 151.5,-74 259.5,-74 259.5,-93"/>
<text text-anchor="middle" x="205.5" y="-81" font-family="Helvetica,sans-Serif" font-size="10.00">stdui::arrange_grid</text>
</a>
</g>
</g>
<!-- Node1&#45;&gt;Node2 -->
<g id="edge1_Node000001_Node000002" class="edge">
<title>Node1&#45;&gt;Node2</title>
<g id="a_edge1_Node000001_Node000002"><a xlink:title=" ">
<path fill="none" stroke="#63b8ff" d="M90.9,-56.03C110.46,-60.76 134.28,-66.52 155.05,-71.54"/>
<polygon fill="#63b8ff" stroke="#63b8ff" points="154.42,-74.99 164.97,-73.94 156.07,-68.19 154.42,-74.99"/>
</a>
</g>
</g>
<!-- Node3 -->
<g id="Node000003" class="node">
<title>Node3</title>
<g id="a_Node000003"><a xlink:href="structstdui_1_1proposal.html#a5e2a2e82a8e215181cce83f6331befab" target="_top" xlink:title=" ">
<polygon fill="white" stroke="#666666" points="274,-56 137,-56 137,-37 274,-37 274,-56"/>
<text text-anchor="middle" x="205.5" y="-44" font-family="Helvetica,sans-Serif" font-size="10.00">stdui::proposal::bounded</text>
</a>
</g>
</g>
<!-- Node1&#45;&gt;Node3 -->
<g id="edge2_Node000001_Node000003" class="edge">
<title>Node1&#45;&gt;Node3</title>
<g id="a_edge2_Node000001_Node000003"><a xlink:title=" ">
<path fill="none" stroke="#63b8ff" d="M101.17,-46.5C109.39,-46.5 118.08,-46.5 126.79,-46.5"/>
<polygon fill="#63b8ff" stroke="#63b8ff" points="126.99,-50 136.99,-46.5 126.99,-43 126.99,-50"/>
</a>
</g>
</g>
<!-- Node4 -->
<g id="Node000004" class="node">
<title>Node4</title>
<g id="a_Node000004"><a xlink:href="namespacestdui.html#a1e0d76dca5e776fca9b35bee9293a065" target="_top" xlink:title="Measures children into a fixed&#45;column grid.">
<polygon fill="white" stroke="#666666" points="262,-19 149,-19 149,0 262,0 262,-19"/>
<text text-anchor="middle" x="205.5" y="-7" font-family="Helvetica,sans-Serif" font-size="10.00">stdui::measure_grid</text>
</a>
</g>
</g>
<!-- Node1&#45;&gt;Node4 -->
<g id="edge3_Node000001_Node000004" class="edge">
<title>Node1&#45;&gt;Node4</title>
<g id="a_edge3_Node000001_Node000004"><a xlink:title=" ">
<path fill="none" stroke="#63b8ff" d="M90.9,-36.97C110.46,-32.24 134.28,-26.48 155.05,-21.46"/>
<polygon fill="#63b8ff" stroke="#63b8ff" points="156.07,-24.81 164.97,-19.06 154.42,-18.01 156.07,-24.81"/>
</a>
</g>
</g>
<!-- Node5 -->
<g id="Node000005" class="node">
<title>Node5</title>
<g id="a_Node000005"><a xlink:href="namespacestdui.html#a12b5e2f23c37010d98c2c70f38940671" target="_top" xlink:title="Applies proposal constraints to a size.">
<polygon fill="white" stroke="#666666" points="411,-19 310,-19 310,0 411,0 411,-19"/>
<text text-anchor="middle" x="360.5" y="-7" font-family="Helvetica,sans-Serif" font-size="10.00">stdui::clamp_size</text>
</a>
</g>
</g>
<!-- Node4&#45;&gt;Node5 -->
<g id="edge4_Node000004_Node000005" class="edge">
<title>Node4&#45;&gt;Node5</title>
<g id="a_edge4_Node000004_Node000005"><a xlink:title=" ">
<path fill="none" stroke="#63b8ff" d="M262.17,-9.5C274.38,-9.5 287.37,-9.5 299.74,-9.5"/>
<polygon fill="#63b8ff" stroke="#63b8ff" points="299.95,-13 309.95,-9.5 299.95,-6 299.95,-13"/>
</a>
</g>
</g>
<!-- Node6 -->
<g id="Node000006" class="node">
<title>Node6</title>
<g id="a_Node000006"><a xlink:href="namespacestdui.html#a3a14a6fe38bfd045f02687b9a62a45f0" target="_top" xlink:title="Applies one optional bound to a scalar value.">
<polygon fill="white" stroke="#666666" points="575,-19 447,-19 447,0 575,0 575,-19"/>
<text text-anchor="middle" x="511" y="-7" font-family="Helvetica,sans-Serif" font-size="10.00">stdui::apply_constraint</text>
</a>
</g>
</g>
<!-- Node5&#45;&gt;Node6 -->
<g id="edge5_Node000005_Node000006" class="edge">
<title>Node5&#45;&gt;Node6</title>
<g id="a_edge5_Node000005_Node000006"><a xlink:title=" ">
<path fill="none" stroke="#63b8ff" d="M411.36,-9.5C419.54,-9.5 428.16,-9.5 436.76,-9.5"/>
<polygon fill="#63b8ff" stroke="#63b8ff" points="436.82,-13 446.82,-9.5 436.82,-6 436.82,-13"/>
</a>
</g>
</g>
</g>
</svg>
