<?xml version="1.0" encoding="UTF-8" standalone="no"?>
<!DOCTYPE svg PUBLIC "-//W3C//DTD SVG 1.1//EN"
 "http://www.w3.org/Graphics/SVG/1.1/DTD/svg11.dtd">
<!-- Generated by graphviz version 2.43.0 (0)
 -->
<!-- Title: include/stdui/overlay.hpp Pages: 1 -->
<svg width="388pt" height="291pt"
 viewBox="0.00 0.00 387.50 291.00" xmlns="http://www.w3.org/2000/svg" xmlns:xlink="http://www.w3.org/1999/xlink">
<g id="graph0" class="graph" transform="scale(1 1) rotate(0) translate(4 287)">
<title>include/stdui/overlay.hpp</title>
<!-- Node1 -->
<g id="Node000001" class="node">
<title>Node1</title>
<g id="a_Node000001"><a xlink:title=" ">
<polygon fill="#999999" stroke="#666666" points="229.5,-283 91.5,-283 91.5,-264 229.5,-264 229.5,-283"/>
<text text-anchor="middle" x="160.5" y="-271" font-family="Helvetica,sans-Serif" font-size="10.00">include/stdui/overlay.hpp</text>
</a>
</g>
</g>
<!-- Node2 -->
<g id="Node000002" class="node">
<title>Node2</title>
<g id="a_Node000002"><a xlink:href="layout__tree_8hpp.html" target="_top" xlink:title=" ">
<polygon fill="white" stroke="#666666" points="217,-228 104,-228 104,-198 217,-198 217,-228"/>
<text text-anchor="start" x="112" y="-216" font-family="Helvetica,sans-Serif" font-size="10.00">include/stdui/layout</text>
<text text-anchor="middle" x="160.5" y="-205" font-family="Helvetica,sans-Serif" font-size="10.00">_tree.hpp</text>
</a>
</g>
</g>
<!-- Node1&#45;&gt;Node2 -->
<g id="edge1_Node000001_Node000002" class="edge">
<title>Node1&#45;&gt;Node2</title>
<g id="a_edge1_Node000001_Node000002"><a xlink:title=" ">
<path fill="none" stroke="#63b8ff" d="M160.5,-253.65C160.5,-245.36 160.5,-235.78 160.5,-228.11"/>
<polygon fill="#63b8ff" stroke="#63b8ff" points="157,-253.87 160.5,-263.87 164,-253.87 157,-253.87"/>
</a>
</g>
</g>
<!-- Node3 -->
<g id="Node000003" class="node">
<title>Node3</title>
<g id="a_Node000003"><a xlink:href="application_8hpp.html" target="_top" xlink:title=" ">
<polygon fill="white" stroke="#666666" points="157,-156.5 0,-156.5 0,-137.5 157,-137.5 157,-156.5"/>
<text text-anchor="middle" x="78.5" y="-144.5" font-family="Helvetica,sans-Serif" font-size="10.00">include/stdui/application.hpp</text>
</a>
</g>
</g>
<!-- Node2&#45;&gt;Node3 -->
<g id="edge2_Node000002_Node000003" class="edge">
<title>Node2&#45;&gt;Node3</title>
<g id="a_edge2_Node000002_Node000003"><a xlink:title=" ">
<path fill="none" stroke="#63b8ff" d="M134.34,-191.58C119.34,-179.87 101.27,-165.77 89.83,-156.84"/>
<polygon fill="#63b8ff" stroke="#63b8ff" points="132.26,-194.4 142.3,-197.8 136.57,-188.88 132.26,-194.4"/>
</a>
</g>
</g>
<!-- Node4 -->
<g id="Node000004" class="node">
<title>Node4</title>
<g id="a_Node000004"><a xlink:href="render__tree__builder_8hpp.html" target="_top" xlink:title=" ">
<polygon fill="white" stroke="#666666" points="310,-162 175,-162 175,-132 310,-132 310,-162"/>
<text text-anchor="start" x="183" y="-150" font-family="Helvetica,sans-Serif" font-size="10.00">include/stdui/rendering</text>
<text text-anchor="middle" x="242.5" y="-139" font-family="Helvetica,sans-Serif" font-size="10.00">/render_tree_builder.hpp</text>
</a>
</g>
</g>
<!-- Node2&#45;&gt;Node4 -->
<g id="edge3_Node000002_Node000004" class="edge">
<title>Node2&#45;&gt;Node4</title>
<g id="a_edge3_Node000002_Node000004"><a xlink:title=" ">
<path fill="none" stroke="#63b8ff" d="M186.79,-191.48C199.05,-181.91 213.32,-170.77 224.35,-162.16"/>
<polygon fill="#63b8ff" stroke="#63b8ff" points="184.43,-188.88 178.7,-197.8 188.74,-194.4 184.43,-188.88"/>
</a>
</g>
</g>
<!-- Node5 -->
<g id="Node000005" class="node">
<title>Node5</title>
<g id="a_Node000005"><a xlink:href="renderer_8hpp.html" target="_top" xlink:title=" ">
<polygon fill="white" stroke="#666666" points="306.5,-96 178.5,-96 178.5,-66 306.5,-66 306.5,-96"/>
<text text-anchor="start" x="186.5" y="-84" font-family="Helvetica,sans-Serif" font-size="10.00">include/stdui/rendering</text>
<text text-anchor="middle" x="242.5" y="-73" font-family="Helvetica,sans-Serif" font-size="10.00">/renderer.hpp</text>
</a>
</g>
</g>
<!-- Node4&#45;&gt;Node5 -->
<g id="edge4_Node000004_Node000005" class="edge">
<title>Node4&#45;&gt;Node5</title>
<g id="a_edge4_Node000004_Node000005"><a xlink:title=" ">
<path fill="none" stroke="#63b8ff" d="M242.5,-121.54C242.5,-112.96 242.5,-103.61 242.5,-96.16"/>
<polygon fill="#63b8ff" stroke="#63b8ff" points="239,-121.8 242.5,-131.8 246,-121.8 239,-121.8"/>
</a>
</g>
</g>
<!-- Node6 -->
<g id="Node000006" class="node">
<title>Node6</title>
<g id="a_Node000006"><a xlink:href="direct2d__renderer_8hpp.html" target="_top" xlink:title=" ">
<polygon fill="white" stroke="#666666" points="233.5,-30 105.5,-30 105.5,0 233.5,0 233.5,-30"/>
<text text-anchor="start" x="113.5" y="-18" font-family="Helvetica,sans-Serif" font-size="10.00">include/stdui/rendering</text>
<text text-anchor="middle" x="169.5" y="-7" font-family="Helvetica,sans-Serif" font-size="10.00">/direct2d_renderer.hpp</text>
</a>
</g>
</g>
<!-- Node5&#45;&gt;Node6 -->
<g id="edge5_Node000005_Node000006" class="edge">
<title>Node5&#45;&gt;Node6</title>
<g id="a_edge5_Node000005_Node000006"><a xlink:title=" ">
<path fill="none" stroke="#63b8ff" d="M218.78,-59.2C207.94,-49.7 195.38,-38.69 185.66,-30.16"/>
<polygon fill="#63b8ff" stroke="#63b8ff" points="216.47,-61.84 226.3,-65.8 221.09,-56.57 216.47,-61.84"/>
</a>
</g>
</g>
<!-- Node7 -->
<g id="Node000007" class="node">
<title>Node7</title>
<g id="a_Node000007"><a xlink:href="metal__renderer_8hpp.html" target="_top" xlink:title=" ">
<polygon fill="white" stroke="#666666" points="379.5,-30 251.5,-30 251.5,0 379.5,0 379.5,-30"/>
<text text-anchor="start" x="259.5" y="-18" font-family="Helvetica,sans-Serif" font-size="10.00">include/stdui/rendering</text>
<text text-anchor="middle" x="315.5" y="-7" font-family="Helvetica,sans-Serif" font-size="10.00">/metal_renderer.hpp</text>
</a>
</g>
</g>
<!-- Node5&#45;&gt;Node7 -->
<g id="edge6_Node000005_Node000007" class="edge">
<title>Node5&#45;&gt;Node7</title>
<g id="a_edge6_Node000005_Node000007"><a xlink:title=" ">
<path fill="none" stroke="#63b8ff" d="M266.22,-59.2C277.06,-49.7 289.62,-38.69 299.34,-30.16"/>
<polygon fill="#63b8ff" stroke="#63b8ff" points="263.91,-56.57 258.7,-65.8 268.53,-61.84 263.91,-56.57"/>
</a>
</g>
</g>
</g>
</svg>
