<?xml version="1.0" encoding="UTF-8" standalone="no"?>
<!DOCTYPE svg PUBLIC "-//W3C//DTD SVG 1.1//EN"
 "http://www.w3.org/Graphics/SVG/1.1/DTD/svg11.dtd">
<!-- Generated by graphviz version 2.43.0 (0)
 -->
<!-- Title: include/stdui/platform/platform.hpp Pages: 1 -->
<svg width="768pt" height="203pt"
 viewBox="0.00 0.00 767.50 203.00" xmlns="http://www.w3.org/2000/svg" xmlns:xlink="http://www.w3.org/1999/xlink">
<g id="graph0" class="graph" transform="scale(1 1) rotate(0) translate(4 199)">
<title>include/stdui/platform/platform.hpp</title>
<!-- Node1 -->
<g id="Node000001" class="node">
<title>Node1</title>
<g id="a_Node000001"><a xlink:title=" ">
<polygon fill="#999999" stroke="#666666" points="310.5,-195 186.5,-195 186.5,-165 310.5,-165 310.5,-195"/>
<text text-anchor="start" x="194.5" y="-183" font-family="Helvetica,sans-Serif" font-size="10.00">include/stdui/platform</text>
<text text-anchor="middle" x="248.5" y="-172" font-family="Helvetica,sans-Serif" font-size="10.00">/platform.hpp</text>
</a>
</g>
</g>
<!-- Node2 -->
<g id="Node000002" class="node">
<title>Node2</title>
<g id="a_Node000002"><a xlink:href="events_8hpp.html" target="_top" xlink:title=" ">
<polygon fill="white" stroke="#666666" points="182.5,-74 60.5,-74 60.5,-55 182.5,-55 182.5,-74"/>
<text text-anchor="middle" x="121.5" y="-62" font-family="Helvetica,sans-Serif" font-size="10.00">stdui/core/events.hpp</text>
</a>
</g>
</g>
<!-- Node1&#45;&gt;Node2 -->
<g id="edge1_Node000001_Node000002" class="edge">
<title>Node1&#45;&gt;Node2</title>
<g id="a_edge1_Node000001_Node000002"><a xlink:title=" ">
<path fill="none" stroke="#63b8ff" d="M232.67,-164.85C208.78,-143.5 163.65,-103.17 138.88,-81.03"/>
<polygon fill="#63b8ff" stroke="#63b8ff" points="141.1,-78.32 131.31,-74.27 136.44,-83.54 141.1,-78.32"/>
</a>
</g>
</g>
<!-- Node3 -->
<g id="Node000003" class="node">
<title>Node3</title>
<g id="a_Node000003"><a xlink:href="geometry_8hpp.html" target="_top" xlink:title=" ">
<polygon fill="white" stroke="#666666" points="426.5,-19 292.5,-19 292.5,0 426.5,0 426.5,-19"/>
<text text-anchor="middle" x="359.5" y="-7" font-family="Helvetica,sans-Serif" font-size="10.00">stdui/core/geometry.hpp</text>
</a>
</g>
</g>
<!-- Node1&#45;&gt;Node3 -->
<g id="edge8_Node000001_Node000003" class="edge">
<title>Node1&#45;&gt;Node3</title>
<g id="a_edge8_Node000001_Node000003"><a xlink:title=" ">
<path fill="none" stroke="#63b8ff" d="M246.7,-164.77C244.34,-139.92 243.04,-88.11 267.5,-55 278.88,-39.59 297.04,-29.26 314.22,-22.47"/>
<polygon fill="#63b8ff" stroke="#63b8ff" points="315.42,-25.76 323.62,-19.05 313.03,-19.18 315.42,-25.76"/>
</a>
</g>
</g>
<!-- Node6 -->
<g id="Node000006" class="node">
<title>Node6</title>
<g id="a_Node000006"><a xlink:title=" ">
<polygon fill="#e0e0e0" stroke="#999999" points="65,-19 0,-19 0,0 65,0 65,-19"/>
<text text-anchor="middle" x="32.5" y="-7" font-family="Helvetica,sans-Serif" font-size="10.00">functional</text>
</a>
</g>
</g>
<!-- Node1&#45;&gt;Node6 -->
<g id="edge22_Node000001_Node000006" class="edge">
<title>Node1&#45;&gt;Node6</title>
<g id="a_edge22_Node000001_Node000006"><a xlink:title=" ">
<path fill="none" stroke="#63b8ff" d="M199.33,-164.87C154.57,-149.54 89.79,-120.79 51.5,-74 41.14,-61.34 36.42,-43.15 34.28,-29.49"/>
<polygon fill="#63b8ff" stroke="#63b8ff" points="37.72,-28.78 33.02,-19.29 30.77,-29.64 37.72,-28.78"/>
</a>
</g>
</g>
<!-- Node7 -->
<g id="Node000007" class="node">
<title>Node7</title>
<g id="a_Node000007"><a xlink:title=" ">
<polygon fill="#e0e0e0" stroke="#999999" points="265.5,-19 221.5,-19 221.5,0 265.5,0 265.5,-19"/>
<text text-anchor="middle" x="243.5" y="-7" font-family="Helvetica,sans-Serif" font-size="10.00">string</text>
</a>
</g>
</g>
<!-- Node1&#45;&gt;Node7 -->
<g id="edge24_Node000001_Node000007" class="edge">
<title>Node1&#45;&gt;Node7</title>
<g id="a_edge24_Node000001_Node000007"><a xlink:title=" ">
<path fill="none" stroke="#63b8ff" d="M243.4,-164.78C240.13,-154.89 236.19,-141.32 234.5,-129 230.02,-96.42 231.22,-87.73 234.5,-55 235.35,-46.47 237.11,-37.16 238.84,-29.27"/>
<polygon fill="#63b8ff" stroke="#63b8ff" points="242.3,-29.82 241.18,-19.29 235.49,-28.22 242.3,-29.82"/>
</a>
</g>
</g>
<!-- Node9 -->
<g id="Node000009" class="node">
<title>Node9</title>
<g id="a_Node000009"><a xlink:href="renderer_8hpp.html" target="_top" xlink:title=" ">
<polygon fill="white" stroke="#666666" points="594.5,-129 454.5,-129 454.5,-110 594.5,-110 594.5,-129"/>
<text text-anchor="middle" x="524.5" y="-117" font-family="Helvetica,sans-Serif" font-size="10.00">stdui/render/renderer.hpp</text>
</a>
</g>
</g>
<!-- Node1&#45;&gt;Node9 -->
<g id="edge9_Node000001_Node000009" class="edge">
<title>Node1&#45;&gt;Node9</title>
<g id="a_edge9_Node000001_Node000009"><a xlink:title=" ">
<path fill="none" stroke="#63b8ff" d="M310.78,-165.8C360.15,-155.33 428.25,-140.9 474.2,-131.16"/>
<polygon fill="#63b8ff" stroke="#63b8ff" points="475.17,-134.53 484.22,-129.04 473.71,-127.69 475.17,-134.53"/>
</a>
</g>
</g>
<!-- Node11 -->
<g id="Node000011" class="node">
<title>Node11</title>
<g id="a_Node000011"><a xlink:href="text__measurement_8hpp.html" target="_top" xlink:title=" ">
<polygon fill="white" stroke="#666666" points="458.5,-74 276.5,-74 276.5,-55 458.5,-55 458.5,-74"/>
<text text-anchor="middle" x="367.5" y="-62" font-family="Helvetica,sans-Serif" font-size="10.00">stdui/core/text_measurement.hpp</text>
</a>
</g>
</g>
<!-- Node1&#45;&gt;Node11 -->
<g id="edge21_Node000001_Node000011" class="edge">
<title>Node1&#45;&gt;Node11</title>
<g id="a_edge21_Node000001_Node000011"><a xlink:title=" ">
<path fill="none" stroke="#63b8ff" d="M263.57,-164.63C285.95,-143.28 327.81,-103.36 350.99,-81.25"/>
<polygon fill="#63b8ff" stroke="#63b8ff" points="353.53,-83.66 358.35,-74.23 348.7,-78.6 353.53,-83.66"/>
</a>
</g>
</g>
<!-- Node12 -->
<g id="Node000012" class="node">
<title>Node12</title>
<g id="a_Node000012"><a xlink:title=" ">
<polygon fill="#e0e0e0" stroke="#999999" points="759.5,-19 701.5,-19 701.5,0 759.5,0 759.5,-19"/>
<text text-anchor="middle" x="730.5" y="-7" font-family="Helvetica,sans-Serif" font-size="10.00">memory</text>
</a>
</g>
</g>
<!-- Node1&#45;&gt;Node12 -->
<g id="edge23_Node000001_Node000012" class="edge">
<title>Node1&#45;&gt;Node12</title>
<g id="a_edge23_Node000001_Node000012"><a xlink:title=" ">
<path fill="none" stroke="#63b8ff" d="M310.8,-176.45C382.78,-172.08 504.07,-160.35 603.5,-129 654.87,-112.8 676.99,-115.36 711.5,-74 721.98,-61.44 726.68,-43.24 728.79,-29.54"/>
<polygon fill="#63b8ff" stroke="#63b8ff" points="732.3,-29.67 730.02,-19.32 725.35,-28.83 732.3,-29.67"/>
</a>
</g>
</g>
<!-- Node2&#45;&gt;Node3 -->
<g id="edge2_Node000002_Node000003" class="edge">
<title>Node2&#45;&gt;Node3</title>
<g id="a_edge2_Node000002_Node000003"><a xlink:title=" ">
<path fill="none" stroke="#63b8ff" d="M159.74,-54.98C200.91,-45.82 266.49,-31.21 311.2,-21.26"/>
<polygon fill="#63b8ff" stroke="#63b8ff" points="311.96,-24.67 320.96,-19.08 310.44,-17.84 311.96,-24.67"/>
</a>
</g>
</g>
<!-- Node4 -->
<g id="Node000004" class="node">
<title>Node4</title>
<g id="a_Node000004"><a xlink:title=" ">
<polygon fill="#e0e0e0" stroke="#999999" points="133.5,-19 83.5,-19 83.5,0 133.5,0 133.5,-19"/>
<text text-anchor="middle" x="108.5" y="-7" font-family="Helvetica,sans-Serif" font-size="10.00">chrono</text>
</a>
</g>
</g>
<!-- Node2&#45;&gt;Node4 -->
<g id="edge3_Node000002_Node000004" class="edge">
<title>Node2&#45;&gt;Node4</title>
<g id="a_edge3_Node000002_Node000004"><a xlink:title=" ">
<path fill="none" stroke="#63b8ff" d="M119.35,-54.75C117.63,-47.72 115.15,-37.62 113,-28.84"/>
<polygon fill="#63b8ff" stroke="#63b8ff" points="116.39,-27.97 110.61,-19.09 109.59,-29.63 116.39,-27.97"/>
</a>
</g>
</g>
<!-- Node5 -->
<g id="Node000005" class="node">
<title>Node5</title>
<g id="a_Node000005"><a xlink:title=" ">
<polygon fill="#e0e0e0" stroke="#999999" points="549.5,-19 499.5,-19 499.5,0 549.5,0 549.5,-19"/>
<text text-anchor="middle" x="524.5" y="-7" font-family="Helvetica,sans-Serif" font-size="10.00">cstdint</text>
</a>
</g>
</g>
<!-- Node2&#45;&gt;Node5 -->
<g id="edge4_Node000002_Node000005" class="edge">
<title>Node2&#45;&gt;Node5</title>
<g id="a_edge4_Node000002_Node000005"><a xlink:title=" ">
<path fill="none" stroke="#63b8ff" d="M182.71,-55.45C267.98,-44.24 419.81,-24.27 488.72,-15.21"/>
<polygon fill="#63b8ff" stroke="#63b8ff" points="489.58,-18.62 499.04,-13.85 488.67,-11.68 489.58,-18.62"/>
</a>
</g>
</g>
<!-- Node2&#45;&gt;Node6 -->
<g id="edge5_Node000002_Node000006" class="edge">
<title>Node2&#45;&gt;Node6</title>
<g id="a_edge5_Node000002_Node000006"><a xlink:title=" ">
<path fill="none" stroke="#63b8ff" d="M107.2,-54.98C93.4,-46.77 72.26,-34.18 55.99,-24.49"/>
<polygon fill="#63b8ff" stroke="#63b8ff" points="57.44,-21.28 47.06,-19.17 53.86,-27.29 57.44,-21.28"/>
</a>
</g>
</g>
<!-- Node2&#45;&gt;Node7 -->
<g id="edge6_Node000002_Node000007" class="edge">
<title>Node2&#45;&gt;Node7</title>
<g id="a_edge6_Node000002_Node000007"><a xlink:title=" ">
<path fill="none" stroke="#63b8ff" d="M141.1,-54.98C160.82,-46.42 191.45,-33.11 214.08,-23.28"/>
<polygon fill="#63b8ff" stroke="#63b8ff" points="215.76,-26.37 223.54,-19.17 212.98,-19.94 215.76,-26.37"/>
</a>
</g>
</g>
<!-- Node8 -->
<g id="Node000008" class="node">
<title>Node8</title>
<g id="a_Node000008"><a xlink:title=" ">
<polygon fill="#e0e0e0" stroke="#999999" points="203,-19 152,-19 152,0 203,0 203,-19"/>
<text text-anchor="middle" x="177.5" y="-7" font-family="Helvetica,sans-Serif" font-size="10.00">variant</text>
</a>
</g>
</g>
<!-- Node2&#45;&gt;Node8 -->
<g id="edge7_Node000002_Node000008" class="edge">
<title>Node2&#45;&gt;Node8</title>
<g id="a_edge7_Node000002_Node000008"><a xlink:title=" ">
<path fill="none" stroke="#63b8ff" d="M130.5,-54.98C138.69,-47.23 151.01,-35.58 160.97,-26.14"/>
<polygon fill="#63b8ff" stroke="#63b8ff" points="163.48,-28.59 168.34,-19.17 158.67,-23.5 163.48,-28.59"/>
</a>
</g>
</g>
<!-- Node9&#45;&gt;Node3 -->
<g id="edge12_Node000009_Node000003" class="edge">
<title>Node9&#45;&gt;Node3</title>
<g id="a_edge12_Node000009_Node000003"><a xlink:title=" ">
<path fill="none" stroke="#63b8ff" d="M518.79,-109.99C509.47,-96.65 489.76,-70.73 467.5,-55 447.05,-40.55 421.21,-29.69 399.93,-22.32"/>
<polygon fill="#63b8ff" stroke="#63b8ff" points="400.8,-18.92 390.21,-19.08 398.59,-25.56 400.8,-18.92"/>
</a>
</g>
</g>
<!-- Node9&#45;&gt;Node5 -->
<g id="edge18_Node000009_Node000005" class="edge">
<title>Node9&#45;&gt;Node5</title>
<g id="a_edge18_Node000009_Node000005"><a xlink:title=" ">
<path fill="none" stroke="#63b8ff" d="M524.5,-109.66C524.5,-92.17 524.5,-52.8 524.5,-29.27"/>
<polygon fill="#63b8ff" stroke="#63b8ff" points="528,-29.16 524.5,-19.16 521,-29.16 528,-29.16"/>
</a>
</g>
</g>
<!-- Node10 -->
<g id="Node000010" class="node">
<title>Node10</title>
<g id="a_Node000010"><a xlink:href="color_8hpp.html" target="_top" xlink:title=" ">
<polygon fill="white" stroke="#666666" points="664.5,-74 552.5,-74 552.5,-55 664.5,-55 664.5,-74"/>
<text text-anchor="middle" x="608.5" y="-62" font-family="Helvetica,sans-Serif" font-size="10.00">stdui/core/color.hpp</text>
</a>
</g>
</g>
<!-- Node9&#45;&gt;Node10 -->
<g id="edge10_Node000009_Node000010" class="edge">
<title>Node9&#45;&gt;Node10</title>
<g id="a_edge10_Node000009_Node000010"><a xlink:title=" ">
<path fill="none" stroke="#63b8ff" d="M538,-109.98C550.9,-101.84 570.6,-89.41 585.9,-79.76"/>
<polygon fill="#63b8ff" stroke="#63b8ff" points="588.17,-82.47 594.76,-74.17 584.43,-76.55 588.17,-82.47"/>
</a>
</g>
</g>
<!-- Node9&#45;&gt;Node11 -->
<g id="edge13_Node000009_Node000011" class="edge">
<title>Node9&#45;&gt;Node11</title>
<g id="a_edge13_Node000009_Node000011"><a xlink:title=" ">
<path fill="none" stroke="#63b8ff" d="M499.28,-109.98C473.14,-101.16 432.1,-87.31 402.77,-77.41"/>
<polygon fill="#63b8ff" stroke="#63b8ff" points="403.52,-73.96 392.92,-74.08 401.28,-80.6 403.52,-73.96"/>
</a>
</g>
</g>
<!-- Node9&#45;&gt;Node12 -->
<g id="edge19_Node000009_Node000012" class="edge">
<title>Node9&#45;&gt;Node12</title>
<g id="a_edge19_Node000009_Node000012"><a xlink:title=" ">
<path fill="none" stroke="#63b8ff" d="M594.85,-111.1C626.16,-105.04 662.06,-94.03 689.5,-74 705.19,-62.55 716.45,-43.1 723.15,-28.74"/>
<polygon fill="#63b8ff" stroke="#63b8ff" points="726.45,-29.93 727.22,-19.37 720.03,-27.14 726.45,-29.93"/>
</a>
</g>
</g>
<!-- Node13 -->
<g id="Node000013" class="node">
<title>Node13</title>
<g id="a_Node000013"><a xlink:title=" ">
<polygon fill="#e0e0e0" stroke="#999999" points="662,-19 589,-19 589,0 662,0 662,-19"/>
<text text-anchor="middle" x="625.5" y="-7" font-family="Helvetica,sans-Serif" font-size="10.00">string_view</text>
</a>
</g>
</g>
<!-- Node9&#45;&gt;Node13 -->
<g id="edge20_Node000009_Node000013" class="edge">
<title>Node9&#45;&gt;Node13</title>
<g id="a_edge20_Node000009_Node000013"><a xlink:title=" ">
<path fill="none" stroke="#63b8ff" d="M594.59,-115.33C623.83,-110.1 655.19,-98.57 673.5,-74 686.13,-57.05 666.53,-37.68 648.7,-24.84"/>
<polygon fill="#63b8ff" stroke="#63b8ff" points="650.49,-21.82 640.25,-19.1 646.55,-27.61 650.49,-21.82"/>
</a>
</g>
</g>
<!-- Node10&#45;&gt;Node5 -->
<g id="edge11_Node000010_Node000005" class="edge">
<title>Node10&#45;&gt;Node5</title>
<g id="a_edge11_Node000010_Node000005"><a xlink:title=" ">
<path fill="none" stroke="#63b8ff" d="M595,-54.98C582.1,-46.84 562.4,-34.41 547.1,-24.76"/>
<polygon fill="#63b8ff" stroke="#63b8ff" points="548.57,-21.55 538.24,-19.17 544.83,-27.47 548.57,-21.55"/>
</a>
</g>
</g>
<!-- Node11&#45;&gt;Node3 -->
<g id="edge14_Node000011_Node000003" class="edge">
<title>Node11&#45;&gt;Node3</title>
<g id="a_edge14_Node000011_Node000003"><a xlink:title=" ">
<path fill="none" stroke="#63b8ff" d="M366.18,-54.75C365.13,-47.8 363.63,-37.85 362.31,-29.13"/>
<polygon fill="#63b8ff" stroke="#63b8ff" points="365.75,-28.45 360.8,-19.09 358.83,-29.5 365.75,-28.45"/>
</a>
</g>
</g>
<!-- Node11&#45;&gt;Node7 -->
<g id="edge16_Node000011_Node000007" class="edge">
<title>Node11&#45;&gt;Node7</title>
<g id="a_edge16_Node000011_Node000007"><a xlink:title=" ">
<path fill="none" stroke="#63b8ff" d="M347.58,-54.98C327.45,-46.38 296.12,-32.99 273.09,-23.15"/>
<polygon fill="#63b8ff" stroke="#63b8ff" points="274.36,-19.88 263.79,-19.17 271.6,-26.32 274.36,-19.88"/>
</a>
</g>
</g>
<!-- Node11&#45;&gt;Node12 -->
<g id="edge15_Node000011_Node000012" class="edge">
<title>Node11&#45;&gt;Node12</title>
<g id="a_edge15_Node000011_Node000012"><a xlink:title=" ">
<path fill="none" stroke="#63b8ff" d="M425.82,-54.98C500.24,-44.12 626.97,-25.62 690.99,-16.27"/>
<polygon fill="#63b8ff" stroke="#63b8ff" points="691.69,-19.7 701.08,-14.8 690.68,-12.78 691.69,-19.7"/>
</a>
</g>
</g>
<!-- Node11&#45;&gt;Node13 -->
<g id="edge17_Node000011_Node000013" class="edge">
<title>Node11&#45;&gt;Node13</title>
<g id="a_edge17_Node000011_Node000013"><a xlink:title=" ">
<path fill="none" stroke="#63b8ff" d="M408.95,-54.98C455.36,-45.45 530.4,-30.04 578.84,-20.09"/>
<polygon fill="#63b8ff" stroke="#63b8ff" points="579.66,-23.49 588.75,-18.05 578.25,-16.63 579.66,-23.49"/>
</a>
</g>
</g>
</g>
</svg>
