<?xml version="1.0" encoding="UTF-8" standalone="no"?>
<!DOCTYPE svg PUBLIC "-//W3C//DTD SVG 1.1//EN"
 "http://www.w3.org/Graphics/SVG/1.1/DTD/svg11.dtd">
<!-- Generated by graphviz version 2.43.0 (0)
 -->
<!-- Title: include/stdui/render/renderer.hpp Pages: 1 -->
<svg width="477pt" height="148pt"
 viewBox="0.00 0.00 476.50 148.00" xmlns="http://www.w3.org/2000/svg" xmlns:xlink="http://www.w3.org/1999/xlink">
<g id="graph0" class="graph" transform="scale(1 1) rotate(0) translate(4 144)">
<title>include/stdui/render/renderer.hpp</title>
<!-- Node1 -->
<g id="Node000001" class="node">
<title>Node1</title>
<g id="a_Node000001"><a xlink:title=" ">
<polygon fill="#999999" stroke="#666666" points="239.5,-140 126.5,-140 126.5,-110 239.5,-110 239.5,-140"/>
<text text-anchor="start" x="134.5" y="-128" font-family="Helvetica,sans-Serif" font-size="10.00">include/stdui/render</text>
<text text-anchor="middle" x="183" y="-117" font-family="Helvetica,sans-Serif" font-size="10.00">/renderer.hpp</text>
</a>
</g>
</g>
<!-- Node2 -->
<g id="Node000002" class="node">
<title>Node2</title>
<g id="a_Node000002"><a xlink:href="color_8hpp.html" target="_top" xlink:title=" ">
<polygon fill="white" stroke="#666666" points="136,-74 24,-74 24,-55 136,-55 136,-74"/>
<text text-anchor="middle" x="80" y="-62" font-family="Helvetica,sans-Serif" font-size="10.00">stdui/core/color.hpp</text>
</a>
</g>
</g>
<!-- Node1&#45;&gt;Node2 -->
<g id="edge1_Node000001_Node000002" class="edge">
<title>Node1&#45;&gt;Node2</title>
<g id="a_edge1_Node000001_Node000002"><a xlink:title=" ">
<path fill="none" stroke="#63b8ff" d="M158.33,-109.99C141.91,-100.66 120.45,-88.47 104.14,-79.21"/>
<polygon fill="#63b8ff" stroke="#63b8ff" points="105.63,-76.03 95.21,-74.14 102.18,-82.12 105.63,-76.03"/>
</a>
</g>
</g>
<!-- Node3 -->
<g id="Node000003" class="node">
<title>Node3</title>
<g id="a_Node000003"><a xlink:title=" ">
<polygon fill="#e0e0e0" stroke="#999999" points="50,-19 0,-19 0,0 50,0 50,-19"/>
<text text-anchor="middle" x="25" y="-7" font-family="Helvetica,sans-Serif" font-size="10.00">cstdint</text>
</a>
</g>
</g>
<!-- Node1&#45;&gt;Node3 -->
<g id="edge9_Node000001_Node000003" class="edge">
<title>Node1&#45;&gt;Node3</title>
<g id="a_edge9_Node000001_Node000003"><a xlink:title=" ">
<path fill="none" stroke="#63b8ff" d="M126.15,-114.54C82.87,-106.04 28.51,-92.11 15,-74 5.32,-61.02 9.82,-42.37 15.54,-28.64"/>
<polygon fill="#63b8ff" stroke="#63b8ff" points="18.85,-29.81 19.93,-19.27 12.52,-26.84 18.85,-29.81"/>
</a>
</g>
</g>
<!-- Node4 -->
<g id="Node000004" class="node">
<title>Node4</title>
<g id="a_Node000004"><a xlink:href="geometry_8hpp.html" target="_top" xlink:title=" ">
<polygon fill="white" stroke="#666666" points="231,-19 97,-19 97,0 231,0 231,-19"/>
<text text-anchor="middle" x="164" y="-7" font-family="Helvetica,sans-Serif" font-size="10.00">stdui/core/geometry.hpp</text>
</a>
</g>
</g>
<!-- Node1&#45;&gt;Node4 -->
<g id="edge3_Node000001_Node000004" class="edge">
<title>Node1&#45;&gt;Node4</title>
<g id="a_edge3_Node000001_Node000004"><a xlink:title=" ">
<path fill="none" stroke="#63b8ff" d="M180.59,-109.63C177.18,-89.21 170.92,-51.81 167.14,-29.24"/>
<polygon fill="#63b8ff" stroke="#63b8ff" points="170.56,-28.51 165.46,-19.23 163.66,-29.67 170.56,-28.51"/>
</a>
</g>
</g>
<!-- Node5 -->
<g id="Node000005" class="node">
<title>Node5</title>
<g id="a_Node000005"><a xlink:href="text__measurement_8hpp.html" target="_top" xlink:title=" ">
<polygon fill="white" stroke="#666666" points="412,-74 230,-74 230,-55 412,-55 412,-74"/>
<text text-anchor="middle" x="321" y="-62" font-family="Helvetica,sans-Serif" font-size="10.00">stdui/core/text_measurement.hpp</text>
</a>
</g>
</g>
<!-- Node1&#45;&gt;Node5 -->
<g id="edge4_Node000001_Node000005" class="edge">
<title>Node1&#45;&gt;Node5</title>
<g id="a_edge4_Node000001_Node000005"><a xlink:title=" ">
<path fill="none" stroke="#63b8ff" d="M216.05,-109.99C238.98,-100.27 269.24,-87.44 291.38,-78.06"/>
<polygon fill="#63b8ff" stroke="#63b8ff" points="292.78,-81.26 300.62,-74.14 290.05,-74.82 292.78,-81.26"/>
</a>
</g>
</g>
<!-- Node6 -->
<g id="Node000006" class="node">
<title>Node6</title>
<g id="a_Node000006"><a xlink:title=" ">
<polygon fill="#e0e0e0" stroke="#999999" points="307,-19 249,-19 249,0 307,0 307,-19"/>
<text text-anchor="middle" x="278" y="-7" font-family="Helvetica,sans-Serif" font-size="10.00">memory</text>
</a>
</g>
</g>
<!-- Node1&#45;&gt;Node6 -->
<g id="edge10_Node000001_Node000006" class="edge">
<title>Node1&#45;&gt;Node6</title>
<g id="a_edge10_Node000001_Node000006"><a xlink:title=" ">
<path fill="none" stroke="#63b8ff" d="M188.8,-109.74C195.23,-95.02 206.63,-71.86 221,-55 230.89,-43.39 244.24,-32.77 255.53,-24.83"/>
<polygon fill="#63b8ff" stroke="#63b8ff" points="257.72,-27.56 264.04,-19.06 253.8,-21.77 257.72,-27.56"/>
</a>
</g>
</g>
<!-- Node8 -->
<g id="Node000008" class="node">
<title>Node8</title>
<g id="a_Node000008"><a xlink:title=" ">
<polygon fill="#e0e0e0" stroke="#999999" points="468.5,-19 395.5,-19 395.5,0 468.5,0 468.5,-19"/>
<text text-anchor="middle" x="432" y="-7" font-family="Helvetica,sans-Serif" font-size="10.00">string_view</text>
</a>
</g>
</g>
<!-- Node1&#45;&gt;Node8 -->
<g id="edge11_Node000001_Node000008" class="edge">
<title>Node1&#45;&gt;Node8</title>
<g id="a_edge11_Node000001_Node000008"><a xlink:title=" ">
<path fill="none" stroke="#63b8ff" d="M239.58,-119.36C301.85,-113.04 396.41,-99.48 421,-74 432.28,-62.31 434.3,-43.46 433.94,-29.32"/>
<polygon fill="#63b8ff" stroke="#63b8ff" points="437.43,-28.97 433.27,-19.23 430.44,-29.44 437.43,-28.97"/>
</a>
</g>
</g>
<!-- Node2&#45;&gt;Node3 -->
<g id="edge2_Node000002_Node000003" class="edge">
<title>Node2&#45;&gt;Node3</title>
<g id="a_edge2_Node000002_Node000003"><a xlink:title=" ">
<path fill="none" stroke="#63b8ff" d="M70.92,-54.75C62.91,-47.03 51.04,-35.6 41.38,-26.28"/>
<polygon fill="#63b8ff" stroke="#63b8ff" points="43.54,-23.51 33.91,-19.09 38.69,-28.55 43.54,-23.51"/>
</a>
</g>
</g>
<!-- Node5&#45;&gt;Node4 -->
<g id="edge5_Node000005_Node000004" class="edge">
<title>Node5&#45;&gt;Node4</title>
<g id="a_edge5_Node000005_Node000004"><a xlink:title=" ">
<path fill="none" stroke="#63b8ff" d="M295.78,-54.98C269.64,-46.16 228.6,-32.31 199.27,-22.41"/>
<polygon fill="#63b8ff" stroke="#63b8ff" points="200.02,-18.96 189.42,-19.08 197.78,-25.6 200.02,-18.96"/>
</a>
</g>
</g>
<!-- Node5&#45;&gt;Node6 -->
<g id="edge6_Node000005_Node000006" class="edge">
<title>Node5&#45;&gt;Node6</title>
<g id="a_edge6_Node000005_Node000006"><a xlink:title=" ">
<path fill="none" stroke="#63b8ff" d="M313.9,-54.75C307.83,-47.26 298.91,-36.28 291.49,-27.13"/>
<polygon fill="#63b8ff" stroke="#63b8ff" points="293.99,-24.65 284.97,-19.09 288.55,-29.06 293.99,-24.65"/>
</a>
</g>
</g>
<!-- Node7 -->
<g id="Node000007" class="node">
<title>Node7</title>
<g id="a_Node000007"><a xlink:title=" ">
<polygon fill="#e0e0e0" stroke="#999999" points="369,-19 325,-19 325,0 369,0 369,-19"/>
<text text-anchor="middle" x="347" y="-7" font-family="Helvetica,sans-Serif" font-size="10.00">string</text>
</a>
</g>
</g>
<!-- Node5&#45;&gt;Node7 -->
<g id="edge7_Node000005_Node000007" class="edge">
<title>Node5&#45;&gt;Node7</title>
<g id="a_edge7_Node000005_Node000007"><a xlink:title=" ">
<path fill="none" stroke="#63b8ff" d="M325.29,-54.75C328.81,-47.57 333.91,-37.18 338.28,-28.27"/>
<polygon fill="#63b8ff" stroke="#63b8ff" points="341.52,-29.61 342.79,-19.09 335.24,-26.53 341.52,-29.61"/>
</a>
</g>
</g>
<!-- Node5&#45;&gt;Node8 -->
<g id="edge8_Node000005_Node000008" class="edge">
<title>Node5&#45;&gt;Node8</title>
<g id="a_edge8_Node000005_Node000008"><a xlink:title=" ">
<path fill="none" stroke="#63b8ff" d="M338.83,-54.98C356.61,-46.5 384.15,-33.35 404.68,-23.54"/>
<polygon fill="#63b8ff" stroke="#63b8ff" points="406.33,-26.64 413.84,-19.17 403.31,-20.32 406.33,-26.64"/>
</a>
</g>
</g>
</g>
</svg>
