<?xml version="1.0" encoding="UTF-8" standalone="no"?>
<!DOCTYPE svg PUBLIC "-//W3C//DTD SVG 1.1//EN"
 "http://www.w3.org/Graphics/SVG/1.1/DTD/svg11.dtd">
<!-- Generated by graphviz version 2.43.0 (0)
 -->
<!-- Title: include/stdui/runtime.hpp Pages: 1 -->
<svg width="1067pt" height="247pt"
 viewBox="0.00 0.00 1066.63 247.00" xmlns="http://www.w3.org/2000/svg" xmlns:xlink="http://www.w3.org/1999/xlink">
<g id="graph0" class="graph" transform="scale(1 1) rotate(0) translate(4 243)">
<title>include/stdui/runtime.hpp</title>
<!-- Node1 -->
<g id="Node000001" class="node">
<title>Node1</title>
<g id="a_Node000001"><a xlink:title=" ">
<polygon fill="#999999" stroke="#666666" points="582.13,-239 441.13,-239 441.13,-220 582.13,-220 582.13,-239"/>
<text text-anchor="middle" x="511.63" y="-227" font-family="Helvetica,sans-Serif" font-size="10.00">include/stdui/runtime.hpp</text>
</a>
</g>
</g>
<!-- Node2 -->
<g id="Node000002" class="node">
<title>Node2</title>
<g id="a_Node000002"><a xlink:href="expressions_8hpp.html" target="_top" xlink:title=" ">
<polygon fill="white" stroke="#666666" points="322.13,-129 199.13,-129 199.13,-110 322.13,-110 322.13,-129"/>
<text text-anchor="middle" x="260.63" y="-117" font-family="Helvetica,sans-Serif" font-size="10.00">stdui/expressions.hpp</text>
</a>
</g>
</g>
<!-- Node1&#45;&gt;Node2 -->
<g id="edge1_Node000001_Node000002" class="edge">
<title>Node1&#45;&gt;Node2</title>
<g id="a_edge1_Node000001_Node000002"><a xlink:title=" ">
<path fill="none" stroke="#63b8ff" d="M441.07,-225.39C376.12,-220.91 286.5,-210.06 263.63,-184 253.07,-171.96 253.52,-153.15 255.89,-139.12"/>
<polygon fill="#63b8ff" stroke="#63b8ff" points="259.36,-139.63 258.03,-129.12 252.52,-138.17 259.36,-139.63"/>
</a>
</g>
</g>
<!-- Node4 -->
<g id="Node000004" class="node">
<title>Node4</title>
<g id="a_Node000004"><a xlink:title=" ">
<polygon fill="#e0e0e0" stroke="#999999" points="90.13,-19 37.13,-19 37.13,0 90.13,0 90.13,-19"/>
<text text-anchor="middle" x="63.63" y="-7" font-family="Helvetica,sans-Serif" font-size="10.00">cstddef</text>
</a>
</g>
</g>
<!-- Node1&#45;&gt;Node4 -->
<g id="edge16_Node000001_Node000004" class="edge">
<title>Node1&#45;&gt;Node4</title>
<g id="a_edge16_Node000001_Node000004"><a xlink:title=" ">
<path fill="none" stroke="#63b8ff" d="M441.07,-225.76C376.91,-221.55 280.34,-210.92 200.63,-184 105.63,-151.91 54.4,-160.48 3.63,-74 -7.94,-54.29 14.91,-35.78 35.66,-23.89"/>
<polygon fill="#63b8ff" stroke="#63b8ff" points="37.47,-26.89 44.61,-19.06 34.15,-20.72 37.47,-26.89"/>
</a>
</g>
</g>
<!-- Node6 -->
<g id="Node000006" class="node">
<title>Node6</title>
<g id="a_Node000006"><a xlink:title=" ">
<polygon fill="#e0e0e0" stroke="#999999" points="56.63,-74 12.63,-74 12.63,-55 56.63,-55 56.63,-74"/>
<text text-anchor="middle" x="34.63" y="-62" font-family="Helvetica,sans-Serif" font-size="10.00">string</text>
</a>
</g>
</g>
<!-- Node1&#45;&gt;Node6 -->
<g id="edge19_Node000001_Node000006" class="edge">
<title>Node1&#45;&gt;Node6</title>
<g id="a_edge19_Node000001_Node000006"><a xlink:title=" ">
<path fill="none" stroke="#63b8ff" d="M441.1,-221.9C388.05,-215.63 314.08,-204.09 251.63,-184 198.46,-166.89 187.64,-155.81 138.63,-129 109.53,-113.08 77.07,-92.84 56.27,-79.54"/>
<polygon fill="#63b8ff" stroke="#63b8ff" points="58.16,-76.6 47.86,-74.13 54.38,-82.49 58.16,-76.6"/>
</a>
</g>
</g>
<!-- Node8 -->
<g id="Node000008" class="node">
<title>Node8</title>
<g id="a_Node000008"><a xlink:title=" ">
<polygon fill="#e0e0e0" stroke="#999999" points="441.13,-74 400.13,-74 400.13,-55 441.13,-55 441.13,-74"/>
<text text-anchor="middle" x="420.63" y="-62" font-family="Helvetica,sans-Serif" font-size="10.00">tuple</text>
</a>
</g>
</g>
<!-- Node1&#45;&gt;Node8 -->
<g id="edge20_Node000001_Node000008" class="edge">
<title>Node1&#45;&gt;Node8</title>
<g id="a_edge20_Node000001_Node000008"><a xlink:title=" ">
<path fill="none" stroke="#63b8ff" d="M506.74,-219.74C492.36,-193.98 450.02,-118.13 430.59,-83.33"/>
<polygon fill="#63b8ff" stroke="#63b8ff" points="433.48,-81.33 425.55,-74.31 427.37,-84.74 433.48,-81.33"/>
</a>
</g>
</g>
<!-- Node9 -->
<g id="Node000009" class="node">
<title>Node9</title>
<g id="a_Node000009"><a xlink:title=" ">
<polygon fill="#e0e0e0" stroke="#999999" points="528.13,-74 459.13,-74 459.13,-55 528.13,-55 528.13,-74"/>
<text text-anchor="middle" x="493.63" y="-62" font-family="Helvetica,sans-Serif" font-size="10.00">type_traits</text>
</a>
</g>
</g>
<!-- Node1&#45;&gt;Node9 -->
<g id="edge21_Node000001_Node000009" class="edge">
<title>Node1&#45;&gt;Node9</title>
<g id="a_edge21_Node000001_Node000009"><a xlink:title=" ">
<path fill="none" stroke="#63b8ff" d="M510.67,-219.74C507.86,-194.31 499.66,-120.08 495.75,-84.69"/>
<polygon fill="#63b8ff" stroke="#63b8ff" points="499.18,-83.86 494.61,-74.31 492.23,-84.63 499.18,-83.86"/>
</a>
</g>
</g>
<!-- Node10 -->
<g id="Node000010" class="node">
<title>Node10</title>
<g id="a_Node000010"><a xlink:title=" ">
<polygon fill="#e0e0e0" stroke="#999999" points="591.13,-74 546.13,-74 546.13,-55 591.13,-55 591.13,-74"/>
<text text-anchor="middle" x="568.63" y="-62" font-family="Helvetica,sans-Serif" font-size="10.00">utility</text>
</a>
</g>
</g>
<!-- Node1&#45;&gt;Node10 -->
<g id="edge25_Node000001_Node000010" class="edge">
<title>Node1&#45;&gt;Node10</title>
<g id="a_edge25_Node000001_Node000010"><a xlink:title=" ">
<path fill="none" stroke="#63b8ff" d="M514.7,-219.74C523.67,-194.09 550,-118.78 562.24,-83.78"/>
<polygon fill="#63b8ff" stroke="#63b8ff" points="565.56,-84.9 565.55,-74.31 558.95,-82.59 565.56,-84.9"/>
</a>
</g>
</g>
<!-- Node11 -->
<g id="Node000011" class="node">
<title>Node11</title>
<g id="a_Node000011"><a xlink:href="inspection_8hpp.html" target="_top" xlink:title=" ">
<polygon fill="white" stroke="#666666" points="388.13,-184 273.13,-184 273.13,-165 388.13,-165 388.13,-184"/>
<text text-anchor="middle" x="330.63" y="-172" font-family="Helvetica,sans-Serif" font-size="10.00">stdui/inspection.hpp</text>
</a>
</g>
</g>
<!-- Node1&#45;&gt;Node11 -->
<g id="edge10_Node000001_Node000011" class="edge">
<title>Node1&#45;&gt;Node11</title>
<g id="a_edge10_Node000001_Node000011"><a xlink:title=" ">
<path fill="none" stroke="#63b8ff" d="M482.55,-219.98C452.03,-211.05 403.87,-196.94 369.97,-187.02"/>
<polygon fill="#63b8ff" stroke="#63b8ff" points="370.52,-183.53 359.94,-184.08 368.56,-190.25 370.52,-183.53"/>
</a>
</g>
</g>
<!-- Node12 -->
<g id="Node000012" class="node">
<title>Node12</title>
<g id="a_Node000012"><a xlink:title=" ">
<polygon fill="#e0e0e0" stroke="#999999" points="426.13,-129 379.13,-129 379.13,-110 426.13,-110 426.13,-129"/>
<text text-anchor="middle" x="402.63" y="-117" font-family="Helvetica,sans-Serif" font-size="10.00">vector</text>
</a>
</g>
</g>
<!-- Node1&#45;&gt;Node12 -->
<g id="edge26_Node000001_Node000012" class="edge">
<title>Node1&#45;&gt;Node12</title>
<g id="a_edge26_Node000001_Node000012"><a xlink:title=" ">
<path fill="none" stroke="#63b8ff" d="M493.05,-219.95C477.66,-212.19 455.9,-199.59 440.63,-184 427.6,-170.69 417.13,-152.08 410.51,-138.45"/>
<polygon fill="#63b8ff" stroke="#63b8ff" points="413.6,-136.77 406.22,-129.16 407.24,-139.71 413.6,-136.77"/>
</a>
</g>
</g>
<!-- Node13 -->
<g id="Node000013" class="node">
<title>Node13</title>
<g id="a_Node000013"><a xlink:title=" ">
<polygon fill="#e0e0e0" stroke="#999999" points="594.13,-184 559.13,-184 559.13,-165 594.13,-165 594.13,-184"/>
<text text-anchor="middle" x="576.63" y="-172" font-family="Helvetica,sans-Serif" font-size="10.00">any</text>
</a>
</g>
</g>
<!-- Node1&#45;&gt;Node13 -->
<g id="edge15_Node000001_Node000013" class="edge">
<title>Node1&#45;&gt;Node13</title>
<g id="a_edge15_Node000001_Node000013"><a xlink:title=" ">
<path fill="none" stroke="#63b8ff" d="M522.08,-219.98C531.78,-212.07 546.45,-200.11 558.13,-190.58"/>
<polygon fill="#63b8ff" stroke="#63b8ff" points="560.46,-193.2 566,-184.17 556.04,-187.78 560.46,-193.2"/>
</a>
</g>
</g>
<!-- Node14 -->
<g id="Node000014" class="node">
<title>Node14</title>
<g id="a_Node000014"><a xlink:title=" ">
<polygon fill="#e0e0e0" stroke="#999999" points="677.13,-184 612.13,-184 612.13,-165 677.13,-165 677.13,-184"/>
<text text-anchor="middle" x="644.63" y="-172" font-family="Helvetica,sans-Serif" font-size="10.00">functional</text>
</a>
</g>
</g>
<!-- Node1&#45;&gt;Node14 -->
<g id="edge17_Node000001_Node000014" class="edge">
<title>Node1&#45;&gt;Node14</title>
<g id="a_edge17_Node000001_Node000014"><a xlink:title=" ">
<path fill="none" stroke="#63b8ff" d="M533,-219.98C554.78,-211.3 588.8,-197.75 613.56,-187.88"/>
<polygon fill="#63b8ff" stroke="#63b8ff" points="614.88,-191.12 622.88,-184.17 612.29,-184.62 614.88,-191.12"/>
</a>
</g>
</g>
<!-- Node15 -->
<g id="Node000015" class="node">
<title>Node15</title>
<g id="a_Node000015"><a xlink:title=" ">
<polygon fill="#e0e0e0" stroke="#999999" points="760.13,-184 695.13,-184 695.13,-165 760.13,-165 760.13,-184"/>
<text text-anchor="middle" x="727.63" y="-172" font-family="Helvetica,sans-Serif" font-size="10.00">stdexcept</text>
</a>
</g>
</g>
<!-- Node1&#45;&gt;Node15 -->
<g id="edge18_Node000001_Node000015" class="edge">
<title>Node1&#45;&gt;Node15</title>
<g id="a_edge18_Node000001_Node000015"><a xlink:title=" ">
<path fill="none" stroke="#63b8ff" d="M546.34,-219.98C584.05,-210.73 644.33,-195.94 684.92,-185.98"/>
<polygon fill="#63b8ff" stroke="#63b8ff" points="685.91,-189.34 694.79,-183.56 684.24,-182.54 685.91,-189.34"/>
</a>
</g>
</g>
<!-- Node16 -->
<g id="Node000016" class="node">
<title>Node16</title>
<g id="a_Node000016"><a xlink:title=" ">
<polygon fill="#e0e0e0" stroke="#999999" points="843.13,-184 778.13,-184 778.13,-165 843.13,-165 843.13,-184"/>
<text text-anchor="middle" x="810.63" y="-172" font-family="Helvetica,sans-Serif" font-size="10.00">typeindex</text>
</a>
</g>
</g>
<!-- Node1&#45;&gt;Node16 -->
<g id="edge22_Node000001_Node000016" class="edge">
<title>Node1&#45;&gt;Node16</title>
<g id="a_edge22_Node000001_Node000016"><a xlink:title=" ">
<path fill="none" stroke="#63b8ff" d="M564.11,-219.98C614.06,-211.75 691.61,-198.66 767.74,-184.31"/>
<polygon fill="#63b8ff" stroke="#63b8ff" points="768.81,-187.67 777.98,-182.37 767.5,-180.8 768.81,-187.67"/>
</a>
</g>
</g>
<!-- Node17 -->
<g id="Node000017" class="node">
<title>Node17</title>
<g id="a_Node000017"><a xlink:title=" ">
<polygon fill="#e0e0e0" stroke="#999999" points="954.13,-184 861.13,-184 861.13,-165 954.13,-165 954.13,-184"/>
<text text-anchor="middle" x="907.63" y="-172" font-family="Helvetica,sans-Serif" font-size="10.00">unordered_map</text>
</a>
</g>
</g>
<!-- Node1&#45;&gt;Node17 -->
<g id="edge23_Node000001_Node000017" class="edge">
<title>Node1&#45;&gt;Node17</title>
<g id="a_edge23_Node000001_Node000017"><a xlink:title=" ">
<path fill="none" stroke="#63b8ff" d="M580.6,-219.98C647.31,-211.64 751.53,-198.31 850.93,-184.22"/>
<polygon fill="#63b8ff" stroke="#63b8ff" points="851.43,-187.68 860.84,-182.81 850.44,-180.75 851.43,-187.68"/>
</a>
</g>
</g>
<!-- Node18 -->
<g id="Node000018" class="node">
<title>Node18</title>
<g id="a_Node000018"><a xlink:title=" ">
<polygon fill="#e0e0e0" stroke="#999999" points="1058.63,-184 972.63,-184 972.63,-165 1058.63,-165 1058.63,-184"/>
<text text-anchor="middle" x="1015.63" y="-172" font-family="Helvetica,sans-Serif" font-size="10.00">unordered_set</text>
</a>
</g>
</g>
<!-- Node1&#45;&gt;Node18 -->
<g id="edge24_Node000001_Node000018" class="edge">
<title>Node1&#45;&gt;Node18</title>
<g id="a_edge24_Node000001_Node000018"><a xlink:title=" ">
<path fill="none" stroke="#63b8ff" d="M582.26,-222.95C669.25,-215.8 821.8,-202.25 962.43,-184.08"/>
<polygon fill="#63b8ff" stroke="#63b8ff" points="963.07,-187.52 972.54,-182.76 962.17,-180.58 963.07,-187.52"/>
</a>
</g>
</g>
<!-- Node3 -->
<g id="Node000003" class="node">
<title>Node3</title>
<g id="a_Node000003"><a xlink:href="layout__options_8hpp.html" target="_top" xlink:title=" ">
<polygon fill="white" stroke="#666666" points="212.13,-74 75.13,-74 75.13,-55 212.13,-55 212.13,-74"/>
<text text-anchor="middle" x="143.63" y="-62" font-family="Helvetica,sans-Serif" font-size="10.00">stdui/layout_options.hpp</text>
</a>
</g>
</g>
<!-- Node2&#45;&gt;Node3 -->
<g id="edge2_Node000002_Node000003" class="edge">
<title>Node2&#45;&gt;Node3</title>
<g id="a_edge2_Node000002_Node000003"><a xlink:title=" ">
<path fill="none" stroke="#63b8ff" d="M241.84,-109.98C223.01,-101.46 193.81,-88.23 172.14,-78.41"/>
<polygon fill="#63b8ff" stroke="#63b8ff" points="173.33,-75.11 162.77,-74.17 170.44,-81.48 173.33,-75.11"/>
</a>
</g>
</g>
<!-- Node5 -->
<g id="Node000005" class="node">
<title>Node5</title>
<g id="a_Node000005"><a xlink:title=" ">
<polygon fill="#e0e0e0" stroke="#999999" points="290.63,-74 230.63,-74 230.63,-55 290.63,-55 290.63,-74"/>
<text text-anchor="middle" x="260.63" y="-62" font-family="Helvetica,sans-Serif" font-size="10.00">concepts</text>
</a>
</g>
</g>
<!-- Node2&#45;&gt;Node5 -->
<g id="edge4_Node000002_Node000005" class="edge">
<title>Node2&#45;&gt;Node5</title>
<g id="a_edge4_Node000002_Node000005"><a xlink:title=" ">
<path fill="none" stroke="#63b8ff" d="M260.63,-109.75C260.63,-102.8 260.63,-92.85 260.63,-84.13"/>
<polygon fill="#63b8ff" stroke="#63b8ff" points="264.13,-84.09 260.63,-74.09 257.13,-84.09 264.13,-84.09"/>
</a>
</g>
</g>
<!-- Node2&#45;&gt;Node6 -->
<g id="edge5_Node000002_Node000006" class="edge">
<title>Node2&#45;&gt;Node6</title>
<g id="a_edge5_Node000002_Node000006"><a xlink:title=" ">
<path fill="none" stroke="#63b8ff" d="M220.93,-109.97C183.52,-101.81 125.69,-88.9 66.8,-74.21"/>
<polygon fill="#63b8ff" stroke="#63b8ff" points="67.51,-70.78 56.95,-71.74 65.8,-77.57 67.51,-70.78"/>
</a>
</g>
</g>
<!-- Node7 -->
<g id="Node000007" class="node">
<title>Node7</title>
<g id="a_Node000007"><a xlink:title=" ">
<polygon fill="#e0e0e0" stroke="#999999" points="382.13,-74 309.13,-74 309.13,-55 382.13,-55 382.13,-74"/>
<text text-anchor="middle" x="345.63" y="-62" font-family="Helvetica,sans-Serif" font-size="10.00">string_view</text>
</a>
</g>
</g>
<!-- Node2&#45;&gt;Node7 -->
<g id="edge6_Node000002_Node000007" class="edge">
<title>Node2&#45;&gt;Node7</title>
<g id="a_edge6_Node000002_Node000007"><a xlink:title=" ">
<path fill="none" stroke="#63b8ff" d="M274.29,-109.98C287.47,-101.77 307.66,-89.18 323.2,-79.49"/>
<polygon fill="#63b8ff" stroke="#63b8ff" points="325.1,-82.43 331.73,-74.17 321.39,-76.49 325.1,-82.43"/>
</a>
</g>
</g>
<!-- Node2&#45;&gt;Node8 -->
<g id="edge7_Node000002_Node000008" class="edge">
<title>Node2&#45;&gt;Node8</title>
<g id="a_edge7_Node000002_Node000008"><a xlink:title=" ">
<path fill="none" stroke="#63b8ff" d="M286.34,-109.98C314.75,-100.57 360.47,-85.43 390.53,-75.47"/>
<polygon fill="#63b8ff" stroke="#63b8ff" points="391.69,-78.78 400.08,-72.31 389.48,-72.13 391.69,-78.78"/>
</a>
</g>
</g>
<!-- Node2&#45;&gt;Node9 -->
<g id="edge8_Node000002_Node000009" class="edge">
<title>Node2&#45;&gt;Node9</title>
<g id="a_edge8_Node000002_Node000009"><a xlink:title=" ">
<path fill="none" stroke="#63b8ff" d="M298.07,-109.98C339.24,-100.62 405.36,-85.58 449.15,-75.62"/>
<polygon fill="#63b8ff" stroke="#63b8ff" points="449.98,-79.02 458.95,-73.39 448.43,-72.19 449.98,-79.02"/>
</a>
</g>
</g>
<!-- Node2&#45;&gt;Node10 -->
<g id="edge9_Node000002_Node000010" class="edge">
<title>Node2&#45;&gt;Node10</title>
<g id="a_edge9_Node000002_Node000010"><a xlink:title=" ">
<path fill="none" stroke="#63b8ff" d="M322.35,-110.35C376.2,-102.83 456.6,-90.62 535.82,-73.98"/>
<polygon fill="#63b8ff" stroke="#63b8ff" points="536.92,-77.32 545.98,-71.82 535.47,-70.47 536.92,-77.32"/>
</a>
</g>
</g>
<!-- Node3&#45;&gt;Node4 -->
<g id="edge3_Node000003_Node000004" class="edge">
<title>Node3&#45;&gt;Node4</title>
<g id="a_edge3_Node000003_Node000004"><a xlink:title=" ">
<path fill="none" stroke="#63b8ff" d="M130.78,-54.98C118.49,-46.84 99.73,-34.41 85.16,-24.76"/>
<polygon fill="#63b8ff" stroke="#63b8ff" points="86.99,-21.78 76.72,-19.17 83.12,-27.61 86.99,-21.78"/>
</a>
</g>
</g>
<!-- Node11&#45;&gt;Node2 -->
<g id="edge11_Node000011_Node000002" class="edge">
<title>Node11&#45;&gt;Node2</title>
<g id="a_edge11_Node000011_Node000002"><a xlink:title=" ">
<path fill="none" stroke="#63b8ff" d="M319.39,-164.98C308.84,-157 292.83,-144.88 280.19,-135.31"/>
<polygon fill="#63b8ff" stroke="#63b8ff" points="282.17,-132.42 272.09,-129.17 277.95,-138 282.17,-132.42"/>
</a>
</g>
</g>
<!-- Node11&#45;&gt;Node6 -->
<g id="edge12_Node000011_Node000006" class="edge">
<title>Node11&#45;&gt;Node6</title>
<g id="a_edge12_Node000011_Node000006"><a xlink:title=" ">
<path fill="none" stroke="#63b8ff" d="M301.23,-165C272.54,-156.52 227.77,-142.8 189.63,-129 144.97,-112.84 94.21,-91.45 63.31,-78.09"/>
<polygon fill="#63b8ff" stroke="#63b8ff" points="64.57,-74.82 54.01,-74.04 61.78,-81.24 64.57,-74.82"/>
</a>
</g>
</g>
<!-- Node11&#45;&gt;Node8 -->
<g id="edge13_Node000011_Node000008" class="edge">
<title>Node11&#45;&gt;Node8</title>
<g id="a_edge13_Node000011_Node000008"><a xlink:title=" ">
<path fill="none" stroke="#63b8ff" d="M334.93,-164.73C341.42,-151.95 354.6,-127.78 369.63,-110 378.88,-99.07 390.88,-88.46 400.92,-80.34"/>
<polygon fill="#63b8ff" stroke="#63b8ff" points="403.09,-83.09 408.79,-74.16 398.76,-77.59 403.09,-83.09"/>
</a>
</g>
</g>
<!-- Node11&#45;&gt;Node12 -->
<g id="edge14_Node000011_Node000012" class="edge">
<title>Node11&#45;&gt;Node12</title>
<g id="a_edge14_Node000011_Node000012"><a xlink:title=" ">
<path fill="none" stroke="#63b8ff" d="M342.2,-164.98C353.05,-157 369.51,-144.88 382.52,-135.31"/>
<polygon fill="#63b8ff" stroke="#63b8ff" points="384.88,-137.92 390.86,-129.17 380.73,-132.28 384.88,-137.92"/>
</a>
</g>
</g>
</g>
</svg>
