<?xml version="1.0" encoding="UTF-8" standalone="no"?>
<!DOCTYPE svg PUBLIC "-//W3C//DTD SVG 1.1//EN"
 "http://www.w3.org/Graphics/SVG/1.1/DTD/svg11.dtd">
<!-- Generated by graphviz version 2.43.0 (0)
 -->
<!-- Title: stdui::mouse_event Pages: 1 -->
<svg width="240pt" height="93pt"
 viewBox="0.00 0.00 240.00 93.00" xmlns="http://www.w3.org/2000/svg" xmlns:xlink="http://www.w3.org/1999/xlink">
<g id="graph0" class="graph" transform="scale(1 1) rotate(0) translate(4 89)">
<title>stdui::mouse_event</title>
<!-- Node1 -->
<g id="Node000001" class="node">
<title>Node1</title>
<g id="a_Node000001"><a xlink:title="Mouse event data.">
<polygon fill="#999999" stroke="#666666" points="154,-19 41,-19 41,0 154,0 154,-19"/>
<text text-anchor="middle" x="97.5" y="-7" font-family="Helvetica,sans-Serif" font-size="10.00">stdui::mouse_event</text>
</a>
</g>
</g>
<!-- Node2 -->
<g id="Node000002" class="node">
<title>Node2</title>
<g id="a_Node000002"><a xlink:href="structstdui_1_1point.html" target="_top" xlink:title="Logical two&#45;dimensional position in device&#45;independent units.">
<polygon fill="white" stroke="#666666" points="71,-85 0,-85 0,-66 71,-66 71,-85"/>
<text text-anchor="middle" x="35.5" y="-73" font-family="Helvetica,sans-Serif" font-size="10.00">stdui::point</text>
</a>
</g>
</g>
<!-- Node2&#45;&gt;Node1 -->
<g id="edge1_Node000001_Node000002" class="edge">
<title>Node2&#45;&gt;Node1</title>
<g id="a_edge1_Node000001_Node000002"><a xlink:title=" ">
<path fill="none" stroke="#9a32cd" stroke-dasharray="5,2" d="M51.02,-58.48C62.99,-46.12 79.1,-29.49 88.87,-19.41"/>
<polygon fill="#9a32cd" stroke="#9a32cd" points="48.31,-56.25 43.86,-65.87 53.33,-61.12 48.31,-56.25"/>
</a>
</g>
<text text-anchor="middle" x="92" y="-40" font-family="Helvetica,sans-Serif" font-size="10.00" fill="grey"> position</text>
</g>
<!-- Node3 -->
<g id="Node000003" class="node">
<title>Node3</title>
<g id="a_Node000003"><a xlink:href="structstdui_1_1keyboard__modifiers.html" target="_top" xlink:title="Keyboard modifier flags.">
<polygon fill="white" stroke="#666666" points="232,-85 89,-85 89,-66 232,-66 232,-85"/>
<text text-anchor="middle" x="160.5" y="-73" font-family="Helvetica,sans-Serif" font-size="10.00">stdui::keyboard_modifiers</text>
</a>
</g>
</g>
<!-- Node3&#45;&gt;Node1 -->
<g id="edge2_Node000001_Node000003" class="edge">
<title>Node3&#45;&gt;Node1</title>
<g id="a_edge2_Node000001_Node000003"><a xlink:title=" ">
<path fill="none" stroke="#9a32cd" stroke-dasharray="5,2" d="M144.73,-58.48C132.56,-46.12 116.19,-29.49 106.27,-19.41"/>
<polygon fill="#9a32cd" stroke="#9a32cd" points="142.49,-61.2 152,-65.87 147.48,-56.29 142.49,-61.2"/>
</a>
</g>
<text text-anchor="middle" x="157" y="-40" font-family="Helvetica,sans-Serif" font-size="10.00" fill="grey"> modifiers</text>
</g>
</g>
</svg>
