<?xml version="1.0" encoding="UTF-8" standalone="no"?>
<!DOCTYPE svg PUBLIC "-//W3C//DTD SVG 1.1//EN"
 "http://www.w3.org/Graphics/SVG/1.1/DTD/svg11.dtd">
<!-- Generated by graphviz version 15.1.1 (20260805.0921)
 -->
<!-- Title: stdui::identified_expression&lt; Id, Expression &gt; Pages: 1 -->
<svg width="201pt" height="195pt"
 viewBox="0.00 0.00 201.00 195.00" xmlns="http://www.w3.org/2000/svg" xmlns:xlink="http://www.w3.org/1999/xlink">
<g id="graph0" class="graph" transform="scale(1 1) rotate(0) translate(4 190.75)">
<title>stdui::identified_expression&lt; Id, Expression &gt;</title>
<!-- Node1 -->
<g id="Node000001" class="node">
<title>Node1</title>
<g id="a_Node000001"><a xlink:title="Wraps a child expression with an explicit sibling identity.">
<polygon fill="#999999" stroke="#666666" points="175.25,-30.5 40.75,-30.5 40.75,0 175.25,0 175.25,-30.5"/>
<text xml:space="preserve" text-anchor="start" x="48.75" y="-17" font-family="Helvetica,sans-Serif" font-size="10.00">stdui::identified_expression</text>
<text xml:space="preserve" text-anchor="middle" x="108" y="-5.75" font-family="Helvetica,sans-Serif" font-size="10.00">&lt; Id, Expression &gt;</text>
</a>
</g>
</g>
<!-- Node2 -->
<g id="Node000002" class="node">
<title>Node2</title>
<g id="a_Node000002"><a xlink:href="structstdui_1_1id__storage.html" target="_top" xlink:title=" ">
<polygon fill="white" stroke="#666666" points="110.12,-114.25 1.88,-114.25 1.88,-83.75 110.12,-83.75 110.12,-114.25"/>
<text xml:space="preserve" text-anchor="start" x="9.88" y="-100.75" font-family="Helvetica,sans-Serif" font-size="10.00">stdui::id_storage&lt;</text>
<text xml:space="preserve" text-anchor="middle" x="56" y="-89.5" font-family="Helvetica,sans-Serif" font-size="10.00"> std::decay_t&lt; Id &gt; &gt;</text>
</a>
</g>
</g>
<!-- Node2&#45;&gt;Node1 -->
<g id="edge1_Node000001_Node000002" class="edge">
<title>Node2&#45;&gt;Node1</title>
<g id="a_edge1_Node000001_Node000002"><a xlink:title=" ">
<path fill="none" stroke="#9a32cd" stroke-dasharray="5,2" d="M71.35,-73.86C80.26,-59.86 91.19,-42.68 98.78,-30.74"/>
<polygon fill="#9a32cd" stroke="#9a32cd" points="68.52,-71.79 66.11,-82.11 74.43,-75.55 68.52,-71.79"/>
</a>
</g>
<text xml:space="preserve" text-anchor="start" x="89.66" y="-54.5" font-family="Helvetica,sans-Serif" font-size="10.00" fill="grey">id</text>
</g>
<!-- Node3 -->
<g id="Node000003" class="node">
<title>Node3</title>
<g id="a_Node000003"><a xlink:href="structstdui_1_1id__storage.html" target="_top" xlink:title="Selects a stable storage type for an explicit identity.">
<polygon fill="white" stroke="#666666" points="112,-186.75 0,-186.75 0,-167.5 112,-167.5 112,-186.75"/>
<text xml:space="preserve" text-anchor="middle" x="56" y="-173.25" font-family="Helvetica,sans-Serif" font-size="10.00">stdui::id_storage&lt; T &gt;</text>
</a>
</g>
</g>
<!-- Node3&#45;&gt;Node2 -->
<g id="edge2_Node000002_Node000003" class="edge">
<title>Node3&#45;&gt;Node2</title>
<g id="a_edge2_Node000002_Node000003"><a xlink:title=" ">
<path fill="none" stroke="orange" stroke-dasharray="5,2" d="M56,-155.97C56,-142.92 56,-126.23 56,-114.48"/>
<polygon fill="orange" stroke="orange" points="52.5,-155.58 56,-165.58 59.5,-155.58 52.5,-155.58"/>
</a>
</g>
<text xml:space="preserve" text-anchor="start" x="59" y="-138.25" font-family="Helvetica,sans-Serif" font-size="10.00" fill="grey">&lt; std::decay_t&lt; Id &gt; &gt;</text>
</g>
<!-- Node4 -->
<g id="Node000004" class="node">
<title>Node4</title>
<g id="a_Node000004"><a xlink:title=" ">
<polygon fill="white" stroke="#666666" points="193.38,-108.62 128.62,-108.62 128.62,-89.38 193.38,-89.38 193.38,-108.62"/>
<text xml:space="preserve" text-anchor="middle" x="161" y="-95.12" font-family="Helvetica,sans-Serif" font-size="10.00">Expression</text>
</a>
</g>
</g>
<!-- Node4&#45;&gt;Node1 -->
<g id="edge3_Node000001_Node000004" class="edge">
<title>Node4&#45;&gt;Node1</title>
<g id="a_edge3_Node000001_Node000004"><a xlink:title=" ">
<path fill="none" stroke="#9a32cd" stroke-dasharray="5,2" d="M148.93,-79.38C139.39,-64.67 126.26,-44.42 117.47,-30.86"/>
<polygon fill="#9a32cd" stroke="#9a32cd" points="145.93,-81.18 154.3,-87.67 151.8,-77.37 145.93,-81.18"/>
</a>
</g>
<text xml:space="preserve" text-anchor="start" x="142.25" y="-54.5" font-family="Helvetica,sans-Serif" font-size="10.00" fill="grey">expression</text>
</g>
</g>
</svg>
